<svg xmlns="http://www.w3.org/2000/svg"  viewBox="0 0 50 50" width="25px" height="25px"><path d="M 20.4375 9.2226562 C 16.4885 9.5946562 11.939453 11.824219 11.939453 11.824219 C 11.939453 11.824219 6 18.386641 6 30.681641 L 6 33.65625 L 6.453125 33.951172 C 7.668125 34.742172 13.844062 38.691406 16.164062 38.691406 L 16.691406 38.691406 L 19.365234 34.804688 C 20.943234 35.184687 22.889 35.498047 25 35.498047 C 27.111 35.498047 29.055766 35.184688 30.634766 34.804688 L 33.308594 38.691406 L 33.835938 38.691406 C 36.155938 38.691406 42.331875 34.742172 43.546875 33.951172 L 44 33.65625 L 44 30.681641 C 44 18.423641 38.060547 11.824219 38.060547 11.824219 C 38.060547 11.824219 33.2945 9.5396563 29.5625 9.2226562 L 28.490234 11.255859 C 27.734234 11.131859 26.48 10.972656 25 10.972656 C 23.519 10.972656 22.265766 11.131859 21.509766 11.255859 L 20.4375 9.2226562 z M 19.880859 10.308594 L 20.970703 12.375 C 20.970703 12.375 22.703 11.974609 25 11.974609 C 27.297 11.974609 29.029297 12.375 29.029297 12.375 L 30.119141 10.308594 C 33.633141 10.792594 37.4375 12.634766 37.4375 12.634766 C 37.4375 12.634766 43 19.077641 43 30.681641 L 43 33.113281 C 43 33.113281 35.976891 37.691406 33.837891 37.691406 L 31.759766 34.671875 C 33.049766 34.093875 34.810547 33.089844 34.810547 33.089844 L 34.167969 32.591797 C 34.167969 32.591797 30.052953 34.498047 25.001953 34.498047 C 19.950953 34.498047 15.835938 32.591797 15.835938 32.591797 L 15.191406 33.089844 C 15.191406 33.089844 16.951187 34.093875 18.242188 34.671875 L 16.164062 37.691406 C 14.023063 37.691406 7 33.113281 7 33.113281 L 7 30.681641 C 7 19.077641 12.5625 12.634766 12.5625 12.634766 C 12.5625 12.634766 16.366859 10.793594 19.880859 10.308594 z M 18.673828 21.660156 C 16.804828 21.660156 15.289062 23.361937 15.289062 25.460938 C 15.289062 27.559938 16.804828 29.261719 18.673828 29.261719 C 20.541828 29.261719 22.057594 27.560938 22.058594 25.460938 C 22.058594 23.361937 20.542828 21.660156 18.673828 21.660156 z M 31.326172 21.660156 C 29.457172 21.660156 27.941406 23.361937 27.941406 25.460938 C 27.941406 27.559938 29.457172 29.261719 31.326172 29.261719 C 33.195172 29.261719 34.710938 27.560938 34.710938 25.460938 C 34.710938 23.361937 33.195172 21.660156 31.326172 21.660156 z"/></svg>