<svg xmlns="http://www.w3.org/2000/svg" version="1.1" xmlns:xlink="http://www.w3.org/1999/xlink" xmlns:svgjs="http://svgjs.dev/svgjs" width="1440" height="560" preserveAspectRatio="none" viewBox="0 0 1440 560">
    <g mask="url(&quot;#SvgjsMask2617&quot;)" fill="none">
        <rect width="1440" height="560" x="0" y="0" fill="url(&quot;#SvgjsRadialGradient2618&quot;)"></rect>
        <path d="M992.362,65.204C1016.331,65.525,1039.568,56.355,1053.014,36.51C1068.372,13.842,1076.795,-15.638,1063.263,-39.442C1049.619,-63.444,1019.968,-70.605,992.362,-70.183C965.628,-69.774,938.021,-60.747,925.12,-37.329C912.561,-14.532,920.184,13.159,934.458,34.924C947.26,54.446,969.019,64.892,992.362,65.204" fill="rgba(253, 230, 138, 0.52)" class="triangle-float2"></path>
        <path d="M1322.726,42.579C1342.96,42.064,1360.473,29.795,1370.587,12.262C1380.695,-5.26,1382.362,-26.459,1372.85,-44.311C1362.744,-63.277,1344.214,-77.85,1322.726,-77.561C1301.641,-77.277,1285.271,-61.344,1274.885,-42.992C1264.683,-24.967,1260.34,-3.266,1270.447,14.812C1280.767,33.272,1301.584,43.117,1322.726,42.579" fill="rgba(253, 230, 138, 0.52)" class="triangle-float3"></path>
        <path d="M1003.234,307.372C1033.662,306.743,1063.554,295.404,1079.545,269.508C1096.341,242.309,1098.058,207.614,1081.848,180.062C1065.847,152.865,1034.764,138.559,1003.234,139.803C973.749,140.967,950.164,160.752,934.679,185.87C918.191,212.615,905.815,245.417,921.254,272.781C936.875,300.467,971.452,308.029,1003.234,307.372" fill="rgba(253, 230, 138, 0.52)" class="triangle-float1"></path>
        <path d="M1126.699,19.756C1143.83,20.377,1158.947,9.256,1167.394,-5.661C1175.712,-20.351,1176.966,-38.705,1167.848,-52.913C1159.318,-66.205,1142.493,-69.13,1126.699,-69.076C1111.029,-69.022,1094.018,-66.118,1086.037,-52.633C1077.948,-38.965,1083.035,-22.284,1090.813,-8.437C1098.798,5.778,1110.406,19.165,1126.699,19.756" fill="rgba(253, 230, 138, 0.52)" class="triangle-float3"></path>
        <path d="M980.869,98.713C1006.231,99.412,1031.66,87.076,1043.047,64.403C1053.593,43.404,1042.953,19.777,1030.526,-0.166C1019.024,-18.626,1002.592,-34.309,980.869,-35.387C957.281,-36.557,933.81,-25.936,921.877,-5.555C909.831,15.019,912.616,40.381,924.356,61.131C936.296,82.235,956.631,98.045,980.869,98.713" fill="rgba(253, 230, 138, 0.52)" class="triangle-float3"></path>
        <path d="M800.973,281.106C836.725,278.638,861.035,249.63,879.843,219.125C900.035,186.377,921.35,148.453,903.909,114.16C885.367,77.703,841.874,64.252,800.973,64.053C759.663,63.852,717.514,77.71,696.287,113.149C674.547,149.445,678.303,195.587,700.683,231.492C721.828,265.417,761.093,283.859,800.973,281.106" fill="rgba(253, 230, 138, 0.52)" class="triangle-float3"></path>
        <path d="M240.098,353.494C271.763,354.141,297.514,330.175,312.43,302.236C326.431,276.011,325.838,245.279,311.888,219.027C296.937,190.892,271.954,165.541,240.098,166.12C208.922,166.687,186.762,193.732,172.692,221.558C160.146,246.369,160.067,274.62,172.716,299.379C186.763,326.874,209.228,352.863,240.098,353.494" fill="rgba(253, 230, 138, 0.52)" class="triangle-float3"></path>
        <path d="M1399.342,473.52C1429.814,473.596,1457.95,456.831,1472.842,430.246C1487.412,404.237,1486.444,371.906,1470.304,346.841C1455.346,323.612,1426.958,315.291,1399.342,316.104C1373.317,316.87,1349.307,328.89,1335.265,350.815C1319.936,374.749,1313.314,404.689,1326.47,429.883C1340.516,456.781,1368.997,473.445,1399.342,473.52" fill="rgba(253, 230, 138, 0.52)" class="triangle-float2"></path>
        <path d="M1428.9,709.88C1477.662,710.69,1528.889,701.189,1556.297,660.85C1587.013,615.642,1594.71,554.648,1565.949,508.171C1538.311,463.509,1481.403,453.577,1428.9,454.976C1379.368,456.296,1329.313,472.591,1303.941,515.152C1278.026,558.625,1281.29,614.143,1308.624,656.738C1333.996,696.276,1381.928,709.1,1428.9,709.88" fill="rgba(253, 230, 138, 0.52)" class="triangle-float1"></path>
        <path d="M1304.297,375.956C1360.898,373.741,1400.212,324.077,1424.992,273.141C1446.422,229.09,1445.468,178.519,1420.995,136.083C1396.5,93.61,1353.327,64.021,1304.297,63.863C1255.01,63.705,1212.567,93.628,1186.293,135.328C1157.854,180.464,1142.565,235.375,1166.054,283.273C1192.236,336.661,1244.88,378.281,1304.297,375.956" fill="rgba(253, 230, 138, 0.52)" class="triangle-float3"></path>
        <path d="M837.426,296.361C867.883,295.975,893.094,273.428,906.151,245.909C917.535,221.915,909.424,195.328,896.324,172.225C882.988,148.706,864.459,125.149,837.426,124.705C809.848,124.252,788.984,146.413,775.076,170.232C761.019,194.307,753.262,222.698,765.616,247.689C779.35,275.473,806.435,296.754,837.426,296.361" fill="rgba(253, 230, 138, 0.52)" class="triangle-float1"></path>
        <path d="M491.463,334.391C547.009,331.68,579.497,277.96,606.162,229.158C631.329,183.098,651.473,131.027,628.315,83.925C602.663,31.751,549.551,-6.569,491.463,-4.131C436.452,-1.822,399.82,46.46,373.159,94.633C347.589,140.834,332.217,194.033,355.583,241.387C381.614,294.142,432.705,337.258,491.463,334.391" fill="rgba(253, 230, 138, 0.52)" class="triangle-float2"></path>
        <path d="M705.923,523.328C732.896,523.482,761.565,516.116,774.921,492.682C788.181,469.415,779.527,441.27,765.793,418.28C752.488,396.008,731.866,376.982,705.923,377.184C680.257,377.384,660.687,397.093,647.65,419.202C634.348,441.76,625.491,469.047,638.28,491.9C651.294,515.154,679.275,523.176,705.923,523.328" fill="rgba(253, 230, 138, 0.52)" class="triangle-float2"></path>
        <path d="M60.273,354.288C76.203,354.317,91.767,347.102,99.568,333.213C107.229,319.573,103.908,303.382,96.649,289.524C88.691,274.33,77.405,259.018,60.273,258.191C42.054,257.311,25.691,269.518,17.257,285.691C9.403,300.752,12.203,318.678,21.227,333.069C29.661,346.519,44.397,354.259,60.273,354.288" fill="rgba(253, 230, 138, 0.52)" class="triangle-float1"></path>
        <path d="M417.259,155.247C457.339,157.07,498.654,139.864,517.38,104.381C535.203,70.608,520.336,31.114,499.739,-1.043C481.064,-30.2,451.88,-52.48,417.259,-51.934C383.459,-51.401,356.084,-27.777,339.164,1.488C322.222,30.79,316.437,65.76,331.764,95.938C348.599,129.083,380.122,153.558,417.259,155.247" fill="rgba(253, 230, 138, 0.52)" class="triangle-float2"></path>
        <path d="M150.969,354.009C192.675,354.643,233.785,333.15,252.104,295.677C268.816,261.491,249.714,224.214,230.467,191.389C211.54,159.109,188.387,122.85,150.969,123.195C113.88,123.537,92.24,160.552,73.968,192.83C56.081,224.428,39.375,259.917,55.027,292.679C72.564,329.387,110.292,353.39,150.969,354.009" fill="rgba(253, 230, 138, 0.52)" class="triangle-float1"></path>
    </g>
    <defs>
        <mask id="SvgjsMask2617">
            <rect width="1440" height="560" fill="#ffffff"></rect>
        </mask>
        <radialGradient cx="0%" cy="0%" r="1545.06" gradientUnits="userSpaceOnUse" id="SvgjsRadialGradient2618">
            <stop stop-color="rgba(54, 83, 20, 0.55)" offset="0.3"></stop>
            <stop stop-color="rgba(217, 119, 6, 0.44)" offset="0.74"></stop>
        </radialGradient>
        <style>
            @keyframes float1 {
                    0%{transform: translate(0, 0)}
                    50%{transform: translate(-10px, 0)}
                    100%{transform: translate(0, 0)}
                }

                .triangle-float1 {
                    animation: float1 5s infinite;
                }

                @keyframes float2 {
                    0%{transform: translate(0, 0)}
                    50%{transform: translate(-5px, -5px)}
                    100%{transform: translate(0, 0)}
                }

                .triangle-float2 {
                    animation: float2 4s infinite;
                }

                @keyframes float3 {
                    0%{transform: translate(0, 0)}
                    50%{transform: translate(0, -10px)}
                    100%{transform: translate(0, 0)}
                }

                .triangle-float3 {
                    animation: float3 6s infinite;
                }
        </style>
    </defs>
</svg>