<?xml version="1.0" encoding="UTF-8" standalone="no"?>
<!DOCTYPE svg PUBLIC "-//W3C//DTD SVG 1.1//EN" "http://www.w3.org/Graphics/SVG/1.1/DTD/svg11.dtd">
<svg width="100%" height="100%" viewBox="0 0 4167 4167" version="1.1" xmlns="http://www.w3.org/2000/svg" xmlns:xlink="http://www.w3.org/1999/xlink" xml:space="preserve" xmlns:serif="http://www.serif.com/" style="fill-rule:evenodd;clip-rule:evenodd;stroke-linejoin:round;stroke-miterlimit:2;">
    <path d="M438.825,1310.77C494.546,1200.18 559.498,1097.14 634.713,1000.69C658.041,970.776 683.298,942.356 707.961,913.5C752.645,861.219 802.23,813.643 852.321,766.746C894.134,727.599 939.208,692.092 985.16,657.809C1039.7,617.115 1096.29,579.451 1154.95,545.017C1201.52,517.686 1249.02,491.96 1298.06,469.306C1390.75,426.479 1485.88,390.205 1584.37,362.7C1653.13,343.497 1722.71,328.329 1793.12,317.157C1831.2,311.116 1869.64,307.345 1908.02,303.191C1993.76,293.909 2079.64,295.229 2165.55,296.552C2192.09,296.96 2218.59,300.573 2245.09,302.917C2260.33,304.266 2275.52,306.185 2290.76,307.547C2333.91,311.403 2376.48,318.876 2419.09,326.487C2507.86,342.348 2594.51,366.093 2679.66,395.451C2735.76,414.792 2790.91,436.589 2844.54,462.07C2867.41,472.934 2890.59,483.224 2913.06,494.863C2991.86,535.677 3067.6,581.533 3140.06,632.872C3187.43,666.426 3232.64,702.628 3276.97,739.982C3294.28,754.567 3311.02,769.879 3327.35,785.568C3350.89,808.201 3373.78,831.526 3397.02,854.472C3435.49,892.444 3470.67,933.366 3504.56,975.385C3542.22,1022.09 3577.92,1070.27 3610.81,1120.49C3646.25,1174.61 3678.68,1230.44 3708.42,1287.93C3757.87,1383.52 3798.4,1482.69 3830.37,1585.38C3853.56,1659.9 3871.88,1735.62 3884.5,1812.66C3889.56,1843.53 3894.57,1874.41 3898.83,1905.4C3901.37,1923.84 3902.59,1942.47 3904.07,1961.04C3906.56,1992.21 3908.8,2023.39 3911.07,2054.57C3911.46,2059.89 3911.62,2065.23 3911.62,2070.55C3911.65,2109.22 3912.45,2147.91 3911.32,2186.54C3910.43,2217.1 3907.26,2247.59 3904.89,2278.1C3903.65,2294.02 3902.21,2309.93 3900.44,2325.79C3897.64,2350.92 3895.11,2376.1 3891.36,2401.1C3881.98,2463.71 3869.11,2525.62 3853.34,2586.96C3833.06,2665.85 3807.51,2742.93 3776.72,2818.3C3755.03,2871.39 3731.42,2923.64 3704.49,2974.26C3679.76,3020.73 3653.54,3066.36 3625.19,3110.78C3596.47,3155.76 3566.05,3199.53 3533.33,3241.63C3510.44,3271.06 3486.3,3299.53 3462.32,3328.09C3429.31,3367.42 3394.15,3404.79 3357.11,3440.33C3324.43,3471.69 3290.74,3501.94 3256.08,3531.15C3197.36,3580.61 3135.54,3625.77 3071.11,3667.41C3029.12,3694.55 2985.99,3719.69 2942.04,3743.6C2903.92,3764.33 2864.87,3783.03 2825.36,3800.71C2767.57,3826.58 2708.44,3849.16 2648.18,3868.86C2574.6,3892.92 2499.83,3912.31 2423.83,3926.64C2384.62,3934.03 2344.97,3939.18 2305.38,3944.33C2271.09,3948.79 2236.61,3951.83 2202.22,3955.49C2201.56,3955.56 2200.89,3955.59 2200.22,3955.61C2156.29,3956.97 2112.36,3959.3 2068.43,3959.4C2031.84,3959.48 1995.13,3958.26 1958.67,3955.25C1904.98,3950.82 1851.42,3945.08 1798.06,3937.13C1678.95,3919.39 1563.32,3888.57 1450.21,3847.84C1402.54,3830.67 1356.14,3810.43 1309.98,3789.5C1224.15,3750.59 1142.86,3703.69 1064.31,3651.92C1011.42,3617.06 961.091,3578.68 912.108,3538.49C853.801,3490.65 798.826,3439.22 747.16,3384.38C695.969,3330.04 648.182,3272.76 604.046,3212.46C557.539,3148.92 514.971,3082.92 476.694,3014.08C414.264,2901.81 364.398,2784.24 326.84,2661.45C302.645,2582.36 283.923,2501.95 271.541,2420.13C266.364,2385.92 261.14,2351.7 257.058,2317.35C254.312,2294.24 253.946,2270.86 251.778,2247.68C247.738,2204.49 247.858,2161.2 247.884,2117.9C247.896,2098.57 247.419,2079.2 248.445,2059.91C250.105,2028.7 252.695,1997.53 255.146,1966.37C256.398,1950.45 257.958,1934.55 259.813,1918.69C262.752,1893.57 265.399,1868.4 269.336,1843.43C278.886,1782.87 291.56,1722.96 306.967,1663.58C327.423,1584.74 352.573,1507.49 384.092,1432.42C401.109,1391.9 420.075,1352.19 438.825,1310.77M983.248,2475.94C984.552,2476.2 985.925,2476.27 987.15,2476.74C1023.71,2490.66 1061.57,2496.76 1100.66,2496.36C1121.28,2496.14 1141.95,2495.52 1162.48,2499.08C1169.64,2500.32 1177.11,2500.08 1184.43,2499.99C1187.42,2499.95 1190.39,2498.49 1193.74,2497.57C1191.02,2474.02 1197.01,2453.14 1205.36,2432.55C1210.35,2420.23 1215.37,2407.68 1218.15,2394.76C1225.19,2362.06 1219.09,2332.44 1193.74,2308.67C1182.57,2298.2 1171.07,2288.07 1159.82,2277.68C1142.15,2261.35 1123.21,2246.67 1102.86,2233.86C1046.5,2198.38 986.257,2190.66 922.613,2209.37C878.567,2222.32 846.281,2249.16 828.091,2291.87C815.953,2320.38 809.831,2350.34 807.87,2381.1C805.955,2411.15 807.57,2441.05 814.763,2470.45C818.08,2484 820.858,2497.77 825.342,2510.94C836.897,2544.89 857.248,2573.78 879.583,2601.33C898.461,2624.61 917.948,2647.4 936.771,2670.73C945.546,2681.6 953.696,2693.02 961.53,2704.6C965.836,2710.96 964.895,2714.98 959.057,2720.45C939.503,2738.77 918.193,2754.78 894.146,2766.69C869.856,2778.72 843.766,2784.85 816.785,2783.05C796.272,2781.67 775.71,2778.16 756.122,2771.27C724.292,2760.05 693.199,2763.2 662.372,2774.98C628.736,2787.83 599.998,2807.94 575.988,2834.59C555.121,2857.76 539.826,2884.12 534.536,2915.31C533.225,2923.04 532.987,2931.23 533.912,2939.02C538.72,2979.46 560.375,3010.15 593.184,3032.2C648.831,3069.62 708.4,3073.96 770.243,3048.41C780.894,3044.02 789.88,3037.22 797.597,3028.69C808.595,3016.55 811.511,3002.67 803.93,2988.13C798.751,2978.2 792.576,2968.27 784.806,2960.34C772.269,2947.53 758.408,2935.94 744.444,2924.65C730.231,2913.16 713.454,2906.5 695.741,2902.32C682.574,2899.21 669.275,2899.02 656.149,2902.28C641.948,2905.8 635.955,2918.11 642.201,2931.47C644.68,2936.78 648.974,2941.26 652.595,2946C655.816,2950.21 659.84,2953.92 662.453,2958.47C666.491,2965.49 664.502,2973.37 658.441,2978.17C638.978,2993.58 617.229,2990.3 603.478,2969.78C601.259,2966.47 599.377,2962.92 597.48,2959.41C591.726,2948.75 591.172,2938.05 596.308,2926.81C602.453,2913.35 610.045,2900.94 619.924,2889.93C639.25,2868.38 661.569,2850.49 687.122,2836.99C709.832,2825 733.884,2817.73 760.101,2820.12C784.746,2822.36 803.067,2833.51 812.655,2856.97C815.418,2863.74 817.627,2870.76 819.606,2877.8C821.769,2885.49 823.257,2893.37 825.236,2901.11C832.651,2930.13 846.166,2955.78 867.558,2976.99C905.939,3015.05 953.538,3031.82 1006.24,3035.55C1046.91,3038.42 1085.75,3029.04 1123.12,3013.74C1133.47,3009.51 1143.13,3003.12 1152.28,2996.57C1162.95,2988.95 1169.74,2977.9 1171.71,2964.95C1176.14,2935.77 1167.92,2911.09 1144.25,2892.16C1119.17,2872.12 1090.12,2860.43 1059.42,2853.55C1040.69,2849.36 1020.93,2849.19 1002.02,2855.05C979.76,2861.96 971.35,2877.53 977.191,2899.9C980.207,2911.45 987.575,2918.43 999.495,2919.7C1006.75,2920.47 1014.14,2919.92 1021.46,2919.98C1028.79,2920.05 1036.17,2919.62 1043.43,2920.34C1051.01,2921.1 1057.47,2924.17 1059.45,2934.55C1057.8,2935.74 1055.77,2937.47 1053.49,2938.8C1038.44,2947.6 1022.63,2955.18 1005.6,2958.55C965.838,2966.41 931.573,2956.57 905.63,2923.84C889.589,2903.61 887.765,2876.92 900.84,2854.6C909.721,2839.44 921.762,2827.09 935.422,2816.19C956.888,2799.05 980.158,2784.89 1005.01,2773.22C1049.1,2752.51 1094.86,2739.92 1144.17,2743.72C1176.09,2746.18 1205.74,2755.29 1231.57,2774.5C1256.43,2792.99 1274.53,2816.7 1279.56,2847.97C1284.53,2878.86 1287.18,2910.11 1287.4,2941.41C1287.51,2957.33 1285.46,2973.26 1284.4,2989.18C1281.39,3034.67 1267.67,3076.79 1243.18,3115.11C1221.8,3148.55 1205.25,3183.89 1196.19,3222.64C1195.33,3226.29 1193.56,3229.74 1191.97,3233.9C1181.42,3230.14 1176.46,3221.76 1170.17,3215.33C1129.12,3173.4 1078.65,3149.27 1022.12,3137.03C981.536,3128.24 940.224,3126.42 898.859,3128.53C887.064,3129.14 875.159,3132.18 863.808,3135.72C850.118,3140 838.985,3148.67 831.567,3161.22C823.398,3175.04 816.788,3189.54 813.486,3205.43C808.575,3229.07 812.916,3250.84 828.043,3269.48C845.06,3290.45 865.926,3306.53 891.494,3316.65C922.167,3328.79 953.865,3330.08 985.938,3327.49C1009.14,3325.62 1026.04,3309.36 1031.15,3285.82C1032.85,3278.02 1034.62,3270.08 1034.84,3262.15C1035.57,3235.5 1023.74,3217.82 994.236,3215.86C990.923,3215.64 987.547,3215.64 984.253,3216.01C974.32,3217.12 968.214,3222.97 968.072,3232.93C967.969,3240.16 969.718,3247.41 970.409,3254.68C971.46,3265.73 964.957,3274.21 953.983,3275.95C950.732,3276.47 947.292,3276.57 944.033,3276.15C924.324,3273.56 906.864,3266.32 892.857,3251.59C886.134,3244.53 882.284,3236.25 880.741,3226.87C876.016,3198.14 895.247,3170.51 923.55,3163.91C938.224,3160.49 952.576,3161.95 967.141,3163.78C1005.61,3168.6 1040.71,3181.89 1072.01,3204.9C1094.73,3221.6 1113.75,3242.09 1131.77,3263.57C1138.19,3271.22 1144.09,3279.31 1150.44,3287.03C1161.48,3300.47 1174.53,3310.02 1193.19,3308.44C1195.04,3308.28 1197,3309.31 1200.01,3310.07C1203.63,3315.59 1207.86,3321.54 1211.57,3327.81C1221.13,3343.96 1232.94,3358.25 1245.79,3371.91C1281.11,3409.47 1324.36,3435.69 1370.02,3457.97C1418.55,3481.66 1469.17,3500.56 1519.75,3519.44C1542.84,3528.06 1565.69,3537.34 1588.54,3546.61C1594.41,3548.99 1601.13,3550.61 1605.97,3558.24C1588.63,3564.54 1572.5,3570.3 1556.45,3576.26C1539.74,3582.47 1522.07,3586.18 1505.75,3594.98C1506.5,3603.95 1511.17,3610.51 1515.51,3617.06C1529.64,3638.42 1548.06,3655.77 1567.88,3671.66C1594.62,3693.09 1624.69,3708.88 1656.32,3721.65C1684.87,3733.18 1714.47,3741.18 1745.25,3743.62C1783.23,3746.62 1819.87,3739.59 1854.36,3724.09C1889.41,3708.34 1920.31,3686.72 1941.68,3653.44C1956.74,3630.01 1962.69,3604.67 1959.63,3577.22C1956.64,3550.47 1940.46,3530.19 1913.05,3523.94C1897.89,3520.48 1882.71,3519.58 1867.4,3520.05C1837.95,3520.94 1809.09,3517.91 1780.13,3512.07C1752.15,3506.43 1723.55,3503.72 1695.16,3500.34C1677.12,3498.2 1659.78,3493.69 1643.07,3486.92C1621.72,3478.27 1607.02,3462.49 1596.57,3442.18C1591.49,3432.31 1585.62,3430.17 1575.33,3432.18C1569.6,3433.3 1565.85,3436.85 1563.24,3441.74C1560.11,3447.62 1557.73,3453.97 1554.06,3459.47C1546.57,3470.72 1536.52,3472.3 1525.54,3464.08C1501.34,3445.98 1474.49,3432.77 1447.08,3420.46C1420.95,3408.72 1394.61,3397.33 1369.16,3384.23C1352.67,3375.74 1336.7,3365.62 1322.11,3354.18C1287.15,3326.77 1271.61,3289.52 1272.97,3245.62C1273.49,3229.09 1276.73,3212.56 1279.74,3196.22C1281.79,3185.14 1284.83,3174.1 1288.8,3163.56C1298.07,3138.89 1314.25,3120.11 1338.35,3108.51C1349.81,3102.99 1361.45,3098.26 1374.02,3095.85C1378.34,3095.02 1382.41,3092.89 1387.58,3091C1385.63,3085.58 1384.5,3081.15 1382.52,3077.14C1374.68,3061.27 1371.81,3044.51 1371.41,3026.88C1370.92,3005.38 1374.6,2984.39 1377.35,2963.29C1383.27,2917.71 1381.35,2873.01 1365.39,2829.35C1347.4,2780.13 1314.43,2744.14 1269.36,2718.52C1246.63,2705.6 1222.21,2696.83 1197.32,2689.13C1166.44,2679.58 1138.24,2664.88 1112.86,2644.73C1089.7,2626.35 1070.3,2604.42 1052.72,2580.89C1030.4,2550.99 1008.62,2520.69 986.805,2490.41C983.778,2486.21 981.939,2481.16 979.872,2476.12C979.872,2476.12 980.184,2475.75 983.248,2475.94M3187.95,2411.89C3187.95,2411.89 3188.62,2412.54 3187.89,2415.18C3177.81,2429.25 3167.8,2443.36 3157.64,2457.38C3133.03,2491.35 3110.37,2526.71 3082.03,2557.98C3064.41,2577.42 3044.79,2594.09 3023.03,2608.44C3000.04,2623.59 2974.87,2634.07 2948.98,2643.08C2907.57,2657.5 2870.22,2678.25 2839.05,2710C2798.19,2751.63 2779.13,2801.84 2775.8,2859.14C2773.77,2894.07 2779.53,2928.22 2785.59,2962.32C2790.42,2989.5 2787.62,3015.34 2774.6,3039.91C2772.55,3043.78 2771.47,3048.17 2769.43,3053.7C2776.15,3054.72 2781.25,3055.48 2786.35,3056.26C2834.88,3063.69 2868.51,3088.74 2882.72,3137.18C2890.49,3163.67 2892.78,3190.66 2892.72,3218.15C2892.66,3243.3 2883.82,3264.85 2869.67,3284.96C2853.96,3307.29 2833.03,3323.76 2809.68,3336.87C2781.24,3352.85 2752.12,3367.68 2722.92,3382.28C2691.89,3397.78 2661.09,3413.51 2633.01,3434.18C2618.49,3444.87 2608.12,3441.81 2598.96,3425.64C2596.34,3421.01 2594.38,3415.87 2591.08,3411.79C2582.36,3400.97 2566.32,3402.3 2559.51,3414.02C2558.5,3415.74 2557.7,3417.59 2556.77,3419.35C2544.41,3442.69 2526.03,3458.95 2501.3,3468.64C2481.89,3476.25 2461.76,3480.38 2441.41,3483.93C2410.61,3489.32 2379.54,3493.03 2349.42,3502.25C2336.86,3506.1 2323.26,3506.9 2310.06,3508.21C2291.52,3510.05 2272.83,3510.54 2254.33,3512.68C2243.83,3513.89 2233.32,3516.5 2223.24,3519.79C2197.87,3528.06 2183.8,3546.36 2180.49,3572.45C2176.29,3605.43 2186.12,3634.08 2208.25,3659C2230.02,3683.51 2256.66,3700.53 2286.64,3712.86C2316,3724.93 2347.08,3730.07 2378.35,3730.41C2399.41,3730.63 2420.72,3726.95 2441.47,3721.52C2498.47,3706.59 2549.35,3679.98 2595.22,3643.15C2615.71,3626.7 2633.53,3608.08 2647.25,3585.7C2659.74,3565.35 2658.75,3563.26 2634.95,3556.92C2612.42,3550.91 2589.83,3545.14 2567.31,3539.09C2561.8,3537.62 2556.48,3535.47 2548.15,3532.63C2553.98,3529.13 2556.97,3526.87 2560.32,3525.39C2609.72,3503.67 2659.11,3481.91 2708.62,3460.45C2754.51,3440.55 2799.87,3419.56 2842.14,3392.63C2892.19,3360.74 2936.21,3322.62 2965.24,3269.64C2968.7,3263.32 2972.92,3259.28 2980.71,3259.18C2995.7,3258.98 3007.28,3251.38 3017.1,3240.76C3021.16,3236.37 3024.89,3231.66 3028.68,3227.03C3048.03,3203.32 3066.79,3179.28 3089.86,3158.68C3130.19,3122.66 3177.75,3104.19 3230.31,3096.78C3244.2,3094.83 3258.22,3095.34 3271.73,3100.47C3306.65,3113.71 3316.41,3162.97 3288.68,3188.14C3275.09,3200.48 3258.6,3207.71 3240.69,3211.53C3237.47,3212.22 3234.04,3212.34 3230.74,3212.18C3218.98,3211.63 3212.14,3204.98 3212.03,3193.25C3211.97,3187.32 3212.77,3181.24 3214.18,3175.47C3216.95,3164.1 3209,3152.71 3195.82,3152.44C3182.1,3152.16 3169.33,3155.67 3158.34,3164.01C3150.03,3170.32 3145.28,3179.03 3144.44,3189.59C3143.09,3206.55 3146.02,3222.78 3153.03,3238.26C3160.01,3253.66 3172.7,3262.48 3188.8,3263.57C3207.99,3264.87 3227.68,3265.38 3246.63,3262.64C3283.7,3257.28 3316.66,3241.41 3344.53,3216.08C3366.27,3196.32 3380.21,3172.63 3376.03,3141.97C3370.93,3104.63 3350.81,3067.01 3303.29,3061.14C3298.02,3060.49 3292.66,3060.31 3287.34,3060.26C3247.88,3059.88 3208.84,3064.5 3170.42,3072.83C3103.77,3087.27 3044.71,3116.28 2997.91,3167.32C2993.86,3171.74 2989.73,3176.1 2985.45,3180.3C2983.69,3182.01 2981.42,3183.2 2978.91,3184.95C2977.51,3182.29 2976.27,3180.73 2975.82,3178.97C2965.07,3137.09 2945.64,3099.57 2920.6,3064.43C2902.29,3038.74 2889.82,3010.06 2883.26,2978.9C2879,2958.64 2875.05,2938.45 2875.34,2917.62C2875.4,2912.99 2874.25,2908.37 2873.87,2903.72C2873.39,2897.76 2872.57,2891.75 2872.85,2885.81C2873.78,2866.53 2874.59,2847.22 2876.52,2828.03C2878.24,2810.86 2879.85,2793.56 2887.12,2777.43C2901.5,2745.57 2925.78,2723.52 2956.33,2708.09C2998.3,2686.89 3043.32,2683.33 3088.94,2689.5C3134.28,2695.64 3176.7,2711.58 3216.48,2734.22C3235.68,2745.15 3253.68,2757.72 3268.4,2774.46C3279.72,2787.35 3288.05,2802 3286.53,2819.54C3285.07,2836.41 3278.72,2851.89 3266.2,2864.12C3239.38,2890.34 3208.16,2903.18 3170.13,2896.49C3150.2,2892.99 3125.88,2884.01 3110.83,2873.34C3113.86,2864.88 3120.67,2861.17 3128.9,2860.26C3136.82,2859.38 3144.87,2859.7 3152.86,2859.45C3158.85,2859.26 3164.95,2859.64 3170.8,2858.63C3192.02,2854.98 3204.49,2834.24 3198.16,2813.62C3195.68,2805.55 3190.86,2799.27 3182.76,2796.36C3166.31,2790.45 3149.47,2786.37 3131.84,2789.53C3097.28,2795.72 3065.24,2808.47 3036.11,2828.06C3021.61,2837.81 3008.78,2849.71 3000.64,2865.41C2987.66,2890.46 2989.58,2914.94 3005.99,2934.63C3012.98,2943.01 3022.02,2948.69 3032.03,2952.65C3076.61,2970.31 3122.17,2979.36 3170.65,2973.11C3204.95,2968.68 3237.14,2959.45 3267.04,2942.43C3287.98,2930.5 3307,2916.27 3322.35,2897.13C3341.57,2873.15 3353.81,2846.41 3359.76,2816.37C3362.08,2804.66 3365.19,2792.93 3369.59,2781.86C3377.22,2762.67 3392.08,2750.25 3411.88,2745.34C3435.52,2739.48 3459.5,2739.74 3482.62,2748.4C3508.97,2758.26 3533.89,2771.07 3555.37,2789.5C3569.52,2801.64 3583,2814.55 3592.9,2830.74C3598.71,2840.26 3601.1,2850.24 3600.15,2861.25C3599.31,2871 3594.42,2878.87 3588.91,2886.47C3574.67,2906.14 3549.62,2909.26 3531.31,2893.7C3525.03,2888.36 3523.76,2883 3528.02,2876.13C3530.8,2871.64 3534.59,2867.79 3537.78,2863.55C3541.78,2858.23 3546.37,2853.19 3549.38,2847.35C3556.13,2834.27 3549.71,2822.2 3535.1,2819.49C3529.88,2818.52 3524.49,2816.94 3519.32,2817.39C3497.95,2819.27 3477.43,2823.83 3458.63,2835.35C3432.66,2851.26 3411.87,2872.77 3391.83,2895.09C3386.62,2900.89 3382.99,2908.4 3379.74,2915.62C3373.22,2930.09 3376.93,2942.82 3387.77,2953.97C3396.37,2962.83 3406.96,2968.27 3418.39,2972.23C3484.38,2995.1 3545.88,2984.91 3602.62,2945.56C3620.72,2933.01 3636.05,2916.78 3646.86,2897.22C3661.87,2870.08 3669.51,2841.52 3658.52,2810.93C3654.71,2800.34 3649.99,2789.83 3644.01,2780.33C3618.58,2739.91 3581.91,2713.17 3537.95,2695.93C3499.87,2680.99 3461.51,2679.17 3422.95,2694.57C3416.16,2697.28 3409.07,2699.33 3402,2701.24C3367.95,2710.45 3333.54,2712.5 3299.37,2702.87C3267.46,2693.88 3239.99,2676.09 3214.2,2655.72C3207.23,2650.2 3206.1,2645.71 3210.98,2638.42C3220.24,2624.59 3229.93,2611.01 3240.2,2597.93C3262.41,2569.64 3285.33,2541.9 3307.57,2513.62C3348.78,2461.24 3365.41,2400.28 3367.73,2334.9C3368.31,2318.42 3366.01,2301.65 3363.35,2285.29C3359.06,2258.92 3352.12,2233.26 3339.11,2209.5C3322.71,2179.53 3298.95,2158.51 3266.69,2147.05C3248.37,2140.55 3229.44,2137.7 3210.28,2134.73C3185.88,2130.95 3162.42,2134.14 3138.93,2138.66C3103.61,2145.45 3072.5,2161.94 3043.39,2182.56C3010.01,2206.2 2981.41,2235.14 2953.36,2264.55C2934.65,2284.17 2928.75,2308.29 2933.85,2334.92C2936.75,2350.06 2942.11,2364.36 2948.94,2378.2C2957.87,2396.29 2964.04,2415.15 2963.99,2435.68C2963.99,2439.35 2965.79,2443.02 2966.93,2447.31C2972.41,2447.03 2977,2447.02 2981.54,2446.52C2987.48,2445.87 2993.36,2444.57 2999.31,2444.01C3026.46,2441.42 3053.6,2438.64 3080.79,2436.6C3110.97,2434.32 3139.85,2426.9 3168.16,2416.64C3174.38,2414.39 3180.91,2413 3187.95,2411.89M1431.4,2114.65C1446.55,2139.75 1461.34,2165.07 1476.92,2189.9C1507.38,2238.44 1537.88,2286.97 1569.15,2334.98C1587.34,2362.89 1607.29,2389.56 1631.1,2413.19C1656.29,2438.2 1685.06,2458.66 1713.54,2479.53C1724.82,2487.8 1735.96,2496.27 1747.07,2504.76C1755.33,2511.08 1758.06,2519.62 1756.09,2529.62C1754.93,2535.49 1753.34,2541.28 1751.71,2547.04C1738.99,2591.91 1725.91,2636.68 1713.55,2681.64C1702.24,2722.75 1692.15,2764.19 1680.69,2805.25C1664.69,2862.56 1642.69,2917.57 1614.86,2970.19C1597.05,3003.85 1576.92,3036.18 1552.37,3065.25C1510.57,3114.76 1474.28,3168.22 1437.71,3221.5C1435.58,3224.61 1434.49,3228.43 1432.72,3232.36C1453.49,3249.53 1473.3,3266.27 1495.78,3279.43C1501.48,3282.76 1507.77,3285.31 1514.08,3287.31C1524.87,3290.74 1535.84,3293.58 1546.8,3296.45C1602.26,3310.96 1658.54,3321.51 1714.83,3332.16C1753.5,3339.48 1792.56,3343.37 1831.61,3347.21C1857.41,3349.75 1883.43,3350.31 1909.36,3351.37C1935.97,3352.45 1962.57,3353.38 1989.17,3354.8C2041.73,3357.62 2094.43,3356.58 2146.86,3351.07C2187.21,3346.83 2227.49,3341.76 2267.72,3336.36C2317.84,3329.63 2367.97,3322.82 2417.91,3314.88C2470.5,3306.51 2522.94,3297.12 2575.32,3287.53C2610.72,3281.05 2646.03,3273.56 2679.61,3260.31C2697.48,3253.26 2714.36,3243.65 2731.59,3234.98C2742.82,3229.33 2745.72,3219.51 2743.5,3207.99C2742.25,3201.49 2740.43,3194.96 2737.86,3188.87C2729.5,3169.05 2718.56,3150.92 2702.15,3136.47C2676.45,3113.83 2654.7,3088.07 2638.08,3057.84C2630.11,3043.32 2619.93,3029.95 2610.12,3016.51C2598.71,3000.86 2588.04,2984.84 2579.66,2967.3C2548.91,2902.97 2518.43,2838.5 2486.92,2774.54C2471.64,2743.54 2462.73,2711.19 2460.47,2676.95C2458.44,2646.39 2457.17,2615.79 2455.56,2585.21C2455.35,2581.22 2455.13,2577.23 2454.91,2573.24C2453.89,2554.64 2453.07,2536.02 2451.78,2517.44C2451.04,2506.76 2454.25,2497.74 2461.38,2490.02C2485.74,2463.65 2508.55,2435.83 2538.36,2414.82C2558.47,2400.64 2577.91,2385.28 2596.25,2368.88C2654.99,2316.35 2702.52,2255.03 2737.52,2184.24C2772.09,2114.31 2802.58,2042.58 2832,1970.36C2845.14,1938.09 2854.93,1905.05 2860.43,1870.66C2862.64,1856.86 2864.39,1842.83 2868.32,1829.49C2876.4,1802.14 2876.43,1774.27 2876.31,1746.27C2876.27,1735.6 2876.52,1724.94 2876.57,1714.27C2876.6,1709.61 2876.71,1704.92 2876.34,1700.28C2875.28,1687.08 2871.54,1682.34 2858.81,1679.79C2850.36,1678.1 2841.66,1676.69 2833.1,1676.85C2818.49,1677.11 2803.89,1678.55 2789.31,1679.75C2769.41,1681.38 2749.44,1682.51 2729.67,1685.17C2693.97,1689.98 2658.27,1693.2 2622.18,1692.1C2574.92,1690.67 2527.65,1689.44 2480.37,1688.82C2429.05,1688.14 2377.72,1688.58 2326.4,1687.93C2267.79,1687.2 2209.2,1685.78 2150.59,1684.76C2143.27,1684.63 2135.93,1684.92 2128.62,1685.38C2096.08,1687.43 2063.57,1690.62 2031,1691.55C1922.43,1694.65 1813.77,1690.06 1705.21,1695.5C1688.59,1696.34 1671.89,1696.16 1655.23,1695.9C1634.44,1695.58 1614.11,1698.57 1593.8,1702.6C1575.54,1706.22 1557.22,1710.09 1538.73,1711.95C1513.58,1714.48 1488.11,1714.02 1463.04,1717.01C1432.43,1720.66 1401.84,1719.6 1371.23,1719.79C1363.93,1719.84 1356.62,1718.82 1349.32,1718.39C1334.05,1717.49 1318.78,1716.45 1303.5,1715.91C1298.92,1715.75 1294.05,1716.35 1289.73,1717.8C1277.41,1721.94 1275.95,1727.47 1278.64,1737.18C1285.4,1761.57 1291.55,1786.14 1297.9,1810.65C1304.1,1834.56 1312.12,1857.79 1322.26,1880.36C1332.91,1904.06 1343.09,1927.98 1352.92,1952.02C1375.37,2006.95 1397.84,2061.83 1431.4,2114.65M1307.94,1550.36C1319.05,1562.48 1333.59,1566.24 1349.25,1567.79C1377.72,1570.62 1406.14,1573.88 1434.6,1576.8C1470.34,1580.47 1506.06,1584.33 1541.84,1587.45C1576.97,1590.51 1612.16,1592.81 1647.34,1595.3C1686.5,1598.08 1725.65,1601.19 1764.85,1603.26C1804.74,1605.38 1844.69,1607.68 1884.61,1607.66C1969.2,1607.62 2053.78,1609.31 2138.41,1605.09C2187.57,1602.63 2236.89,1601.61 2286.14,1599.89C2324.07,1598.56 2361.98,1596.86 2399.9,1595.31C2401.24,1595.26 2402.57,1595.18 2403.9,1595.07C2433.07,1592.74 2462.26,1590.56 2491.42,1587.99C2507.98,1586.53 2524.53,1584.68 2541.02,1582.53C2566.75,1579.17 2592.46,1575.61 2618.12,1571.76C2647.07,1567.41 2676.16,1563.79 2704.51,1556C2742.86,1545.46 2778.39,1529.16 2809.66,1504.39C2848.52,1473.62 2882.39,1437.82 2912.61,1398.68C2968.49,1326.32 3017.71,1249.35 3065.64,1171.67C3112.17,1096.27 3156.29,1019.39 3201.56,943.216C3206.75,934.48 3211.31,925.371 3211.14,915.194C3210.96,904.08 3216.89,898.186 3225.62,893.493C3233.25,889.401 3241.07,885.535 3248.15,880.627C3255.68,875.408 3257.89,867.842 3254.94,859.447C3247.35,837.856 3224.4,823.688 3204.7,830.065C3185.7,836.212 3166.42,842.029 3148.33,850.31C3094.41,874.991 3041.1,900.984 2987.38,926.121C2955.4,941.087 2923.26,955.731 2890.94,969.947C2822.03,1000.26 2752.94,1030.17 2683.95,1060.29C2608.23,1093.34 2532.47,1126.27 2456.92,1159.7C2445.91,1164.58 2437.09,1163.93 2427.18,1157.27C2400.56,1139.36 2375.61,1119.35 2352.21,1097.56C2316.93,1064.69 2287.32,1027 2261.55,986.286C2246.23,962.076 2231.1,937.75 2215.67,913.612C2197.68,885.465 2180.89,856.801 2172.29,824.078C2170.61,817.677 2167.5,811.662 2165.18,805.417C2158.89,788.472 2147.93,775.499 2132.12,766.773C2122.8,761.623 2113.46,756.418 2103.77,752.014C2085.24,743.592 2070.61,748.08 2059.29,765.43C2048.33,782.227 2036.36,798.184 2022.02,812.261C1992.97,840.789 1967.36,872.338 1941.22,903.458C1926.24,921.289 1910.83,938.965 1893.94,954.936C1855.04,991.712 1810.93,1021.75 1765.16,1049.24C1731.48,1069.48 1697.16,1088.68 1663.07,1108.24C1641.69,1120.51 1620.27,1132.7 1598.75,1144.73C1569.3,1161.18 1540.52,1160.81 1512.11,1141.61C1503.34,1135.68 1493.57,1131.16 1484.02,1126.47C1463.09,1116.21 1441.69,1106.85 1421.05,1096.06C1357.87,1063.02 1294.98,1029.43 1231.92,996.161C1197.15,977.814 1162.19,959.809 1127.46,941.393C1102.15,927.974 1077.19,913.894 1051.81,900.602C1041.55,895.225 1033.48,887.647 1025.35,879.673C1012.52,867.105 998.983,855.265 985.626,843.25C972.632,831.562 956.588,827.385 939.807,825.47C928.602,824.19 922.667,827.623 920.99,838.399C919.043,850.92 913.655,860.792 904.861,869.652C895.951,878.63 894.31,889.357 900.501,900.812C902.401,904.328 904.173,907.924 906.256,911.329C917.384,929.516 928.565,947.671 939.775,965.808C969.578,1014.03 997.45,1063.16 1018.92,1115.89C1032.48,1149.19 1049.12,1181.17 1069.87,1210.86C1089.72,1239.26 1108.62,1268.32 1128.44,1296.74C1175.33,1363.97 1222.47,1431.02 1269.62,1498.05C1281.5,1514.94 1293.81,1531.53 1307.94,1550.36Z" style="fill:rgb(6,78,59);fill-rule:nonzero;"/>
    <path d="M1430.7,2113.36C1397.84,2061.83 1375.37,2006.95 1352.92,1952.02C1343.09,1927.98 1332.91,1904.06 1322.26,1880.36C1312.12,1857.79 1304.1,1834.56 1297.9,1810.65C1291.55,1786.14 1285.4,1761.57 1278.64,1737.18C1275.95,1727.47 1277.41,1721.94 1289.73,1717.8C1294.05,1716.35 1298.92,1715.75 1303.5,1715.91C1318.78,1716.45 1334.05,1717.49 1349.32,1718.39C1356.62,1718.82 1363.93,1719.84 1371.23,1719.79C1401.84,1719.6 1432.43,1720.66 1463.04,1717.01C1488.11,1714.02 1513.58,1714.48 1538.73,1711.95C1557.22,1710.09 1575.54,1706.22 1593.8,1702.6C1614.11,1698.57 1634.44,1695.58 1655.23,1695.9C1671.89,1696.16 1688.59,1696.34 1705.21,1695.5C1813.77,1690.06 1922.43,1694.65 2031,1691.55C2063.57,1690.62 2096.08,1687.43 2128.62,1685.38C2135.93,1684.92 2143.27,1684.63 2150.59,1684.76C2209.2,1685.78 2267.79,1687.2 2326.4,1687.93C2377.72,1688.58 2429.05,1688.14 2480.37,1688.82C2527.65,1689.44 2574.92,1690.67 2622.18,1692.1C2658.27,1693.2 2693.97,1689.98 2729.67,1685.17C2749.44,1682.51 2769.41,1681.38 2789.31,1679.75C2803.89,1678.55 2818.49,1677.11 2833.1,1676.85C2841.66,1676.69 2850.36,1678.1 2858.81,1679.79C2871.54,1682.34 2875.28,1687.08 2876.34,1700.28C2876.71,1704.92 2876.6,1709.61 2876.57,1714.27C2876.52,1724.94 2876.27,1735.6 2876.31,1746.27C2876.43,1774.27 2876.4,1802.14 2868.32,1829.49C2864.39,1842.83 2862.64,1856.86 2860.43,1870.66C2854.93,1905.05 2845.14,1938.09 2832,1970.36C2802.58,2042.58 2772.09,2114.31 2737.52,2184.24C2702.52,2255.03 2654.99,2316.35 2596.25,2368.88C2577.91,2385.28 2558.47,2400.64 2538.36,2414.82C2508.55,2435.83 2485.74,2463.65 2461.38,2490.02C2454.25,2497.74 2451.04,2506.76 2451.78,2517.44C2453.07,2536.02 2453.89,2554.64 2454.91,2573.24C2455.13,2577.23 2455.35,2581.22 2455.56,2585.21C2457.17,2615.79 2458.44,2646.39 2460.47,2676.95C2462.73,2711.19 2471.64,2743.54 2486.92,2774.54C2518.43,2838.5 2548.91,2902.97 2579.66,2967.3C2588.04,2984.84 2598.71,3000.86 2610.12,3016.51C2619.93,3029.95 2630.11,3043.32 2638.08,3057.84C2654.7,3088.07 2676.45,3113.83 2702.15,3136.47C2718.56,3150.92 2729.5,3169.05 2737.86,3188.87C2740.43,3194.96 2742.25,3201.49 2743.5,3207.99C2745.72,3219.51 2742.82,3229.33 2731.59,3234.98C2714.36,3243.65 2697.48,3253.26 2679.61,3260.31C2646.03,3273.56 2610.72,3281.05 2575.32,3287.53C2522.94,3297.12 2470.5,3306.51 2417.91,3314.88C2367.97,3322.82 2317.84,3329.63 2267.72,3336.36C2227.49,3341.76 2187.21,3346.83 2146.86,3351.07C2094.43,3356.58 2041.73,3357.62 1989.17,3354.8C1962.57,3353.38 1935.97,3352.45 1909.36,3351.37C1883.43,3350.31 1857.41,3349.75 1831.61,3347.21C1792.56,3343.37 1753.5,3339.48 1714.83,3332.16C1658.54,3321.51 1602.26,3310.96 1546.8,3296.45C1535.84,3293.58 1524.87,3290.74 1514.08,3287.31C1507.77,3285.31 1501.48,3282.76 1495.78,3279.43C1473.3,3266.27 1453.49,3249.53 1432.72,3232.36C1434.49,3228.43 1435.58,3224.61 1437.71,3221.5C1474.28,3168.22 1510.57,3114.76 1552.37,3065.25C1576.92,3036.18 1597.05,3003.85 1614.86,2970.19C1642.69,2917.57 1664.69,2862.56 1680.69,2805.25C1692.15,2764.19 1702.24,2722.75 1713.55,2681.64C1725.91,2636.68 1738.99,2591.91 1751.71,2547.04C1753.34,2541.28 1754.93,2535.49 1756.09,2529.62C1758.06,2519.62 1755.33,2511.08 1747.07,2504.76C1735.96,2496.27 1724.82,2487.8 1713.54,2479.53C1685.06,2458.66 1656.29,2438.2 1631.1,2413.19C1607.29,2389.56 1587.34,2362.89 1569.15,2334.98C1537.88,2286.97 1507.38,2238.44 1476.92,2189.9C1461.34,2165.07 1446.55,2139.75 1430.7,2113.36M1839.38,2508.77C1837.08,2518.48 1834.39,2528.13 1832.57,2537.93C1829.62,2553.76 1834.25,2561.87 1849,2567.65C1853.32,2569.34 1857.9,2570.39 1862.37,2571.73C1917.21,2588.13 1972.09,2604.46 2026.88,2621.05C2031.87,2622.56 2036.97,2624.97 2040.98,2628.24C2054.11,2638.97 2050.82,2658.55 2035.44,2665.14C2027.09,2668.71 2018.5,2668.59 2009.88,2668.05C1952.69,2664.53 1895.49,2661.06 1838.32,2657.1C1817.02,2655.63 1805.37,2654.64 1798.13,2683.87C1786.3,2731.69 1773.09,2779.17 1760.58,2826.83C1759.79,2829.85 1760.01,2833.13 1759.7,2837.08C1764.54,2837.9 1768.33,2838.93 1772.17,2839.15C1846.68,2843.34 1921.13,2849 1995.87,2848.36C2022.52,2848.13 2049.18,2848.95 2075.84,2849.56C2082.46,2849.72 2089.22,2850.28 2095.65,2851.81C2106.82,2854.47 2112.12,2862.93 2113.11,2877.82C2114.15,2893.37 2110.49,2901.7 2099.68,2906.11C2094.18,2908.35 2088.24,2909.82 2082.36,2910.78C2063.3,2913.9 2044.25,2917.35 2025.06,2919.37C1953.26,2926.94 1881.34,2925.88 1809.38,2921.67C1788.76,2920.47 1768.11,2919.85 1747.47,2919.02C1736.29,2918.57 1728.87,2923.23 1723.97,2933.78C1711.05,2961.55 1697.31,2988.93 1684.04,3016.54C1683.02,3018.68 1683.14,3021.37 1682.87,3023C1688.31,3029.24 1694.66,3028.28 1700.48,3028.82C1768.82,3035.15 1837.14,3041.6 1905.51,3047.57C1921.19,3048.93 1935.1,3054.37 1948.95,3061.26C1961.37,3067.45 1966.7,3076.62 1964.69,3090.19C1964.3,3092.78 1963.56,3095.32 1963.04,3097.6C1954.1,3103.12 1945.47,3108.12 1937.17,3113.63C1921.63,3123.97 1904.83,3127.66 1886.08,3127.33C1815.45,3126.1 1744.8,3125.78 1674.15,3125.26C1656.82,3125.13 1639.49,3125.53 1622.17,3125.66C1608.78,3125.76 1597.86,3130.28 1589.2,3141.17C1576.35,3157.34 1562.6,3172.78 1549.35,3188.64C1547.41,3190.96 1546.18,3193.87 1544,3197.56C1552.61,3199.93 1559.52,3201.99 1566.5,3203.73C1702.17,3237.49 1839.94,3255.62 1979.68,3258.53C2081.14,3260.64 2182.12,3254.14 2282.76,3241.1C2371.38,3229.61 2458.92,3212.7 2545.73,3191.73C2549.95,3190.71 2553.92,3188.69 2557.99,3187.14C2557.11,3184.75 2556.85,3183.38 2556.14,3182.3C2554.32,3179.52 2552.53,3176.65 2550.3,3174.21C2530.01,3152 2518.35,3125.37 2510.26,3096.85C2508.62,3091.09 2506.45,3085.48 2504.8,3079.72C2495.44,3046.99 2483.05,3015.4 2468.64,2984.6C2440.97,2925.49 2413.33,2866.36 2385.4,2807.38C2370.25,2775.39 2356.04,2743.07 2349.31,2708.13C2343.64,2678.65 2341.08,2648.77 2339.7,2618.78C2338.66,2596.15 2337.01,2573.55 2335.8,2550.93C2335.21,2539.93 2332.59,2529.91 2324.05,2522.2C2322.58,2520.87 2321.36,2519.23 2320.22,2517.6C2315.13,2510.3 2314.42,2502.57 2319.55,2495.22C2323.33,2489.8 2327.75,2484.7 2332.54,2480.15C2363.44,2450.76 2394.2,2421.21 2425.63,2392.38C2482.3,2340.4 2534.05,2284.07 2579.06,2221.66C2596.21,2197.88 2613.51,2174.18 2629.91,2149.89C2681.12,2074.09 2725.82,1994.64 2761.98,1910.51C2775.73,1878.54 2785.82,1845.5 2790.37,1810.91C2790.85,1807.32 2790.18,1803.57 2790.01,1798.83C2784.11,1800.27 2779.57,1801.09 2775.22,1802.5C2754.95,1809.07 2734.85,1816.19 2714.47,1822.38C2680.72,1832.63 2647.12,1843.67 2612.87,1851.94C2553.9,1866.18 2493.85,1874.52 2433.55,1881.29C2368.53,1888.58 2303.4,1892.01 2238,1890.12C2215.34,1889.47 2192.69,1888.75 2170.03,1888.58C2078.04,1887.88 1986.08,1886.43 1894.28,1879.99C1851.07,1876.96 1807.86,1873.88 1764.69,1870.33C1728.17,1867.32 1691.67,1863.96 1655.23,1860.11C1614.16,1855.76 1573.14,1850.93 1532.15,1845.88C1495.13,1841.32 1458.18,1836.13 1421.19,1831.35C1417.44,1830.86 1413.58,1831.28 1408.96,1831.28C1407.44,1837.86 1405.56,1843.55 1404.88,1849.37C1402.66,1868.48 1405.99,1886.6 1416.21,1903.08C1427.83,1921.82 1445.59,1931.47 1466.55,1936.1C1515.34,1946.89 1564.33,1956.73 1613.88,1963.15C1692.5,1973.32 1771.25,1982.47 1849.86,1992.68C1870.94,1995.42 1891.76,2000.33 1912.64,2004.49C1917.84,2005.53 1923.06,2007.06 1927.89,2009.23C1941.49,2015.33 1947.19,2026.45 1948.03,2041.05C1948.85,2055.16 1941.68,2063.47 1930.04,2069.35C1922.2,2073.31 1914.04,2076 1905.2,2076.07C1893.87,2076.17 1882.52,2076.65 1871.22,2076.02C1823.32,2073.35 1775.37,2071.02 1727.55,2067.24C1686.36,2063.98 1645.32,2058.28 1605.46,2047.12C1566.98,2036.35 1528.48,2025.78 1489.31,2017.78C1484.26,2016.75 1479.07,2016.43 1472.45,2015.6C1474.63,2020.95 1475.76,2024.8 1477.67,2028.2C1501.19,2069.99 1524.14,2112.11 1548.67,2153.31C1564.4,2179.73 1588.3,2196.15 1619.3,2200.75C1662.79,2207.19 1706.26,2213.74 1749.82,2219.62C1796.03,2225.85 1842.36,2231.22 1888.6,2237.22C1903.78,2239.19 1919.04,2241.14 1933.94,2244.5C1952.76,2248.74 1970.49,2255.87 1985.84,2271.34C1976.21,2278.79 1968.36,2286.9 1958.21,2292.01C1954.16,2294.05 1949.47,2295.33 1944.95,2295.83C1907.78,2299.92 1870.44,2301.83 1833.16,2299.12C1782,2295.4 1730.95,2290.17 1679.85,2285.61C1666.57,2284.42 1653.29,2283.28 1640,2282.25C1638.89,2282.17 1637.69,2283.16 1636.53,2283.66C1636.45,2284.91 1635.84,2286.49 1636.37,2287.37C1646.63,2304.57 1657.66,2321.08 1672.66,2334.78C1717.46,2375.69 1762.2,2416.66 1812.13,2451.39C1831.03,2464.53 1842.06,2481.46 1839.38,2508.77Z" style="fill:rgb(2,2,1);fill-rule:nonzero;"/>
    <path d="M1306.93,1549.31C1293.81,1531.53 1281.5,1514.94 1269.62,1498.05C1222.47,1431.02 1175.33,1363.97 1128.44,1296.74C1108.62,1268.32 1089.72,1239.26 1069.87,1210.86C1049.12,1181.17 1032.48,1149.19 1018.92,1115.89C997.45,1063.16 969.578,1014.03 939.775,965.808C928.565,947.671 917.384,929.516 906.256,911.329C904.173,907.924 902.401,904.328 900.501,900.812C894.31,889.357 895.951,878.63 904.861,869.652C913.655,860.792 919.043,850.92 920.99,838.399C922.667,827.623 928.602,824.19 939.807,825.47C956.588,827.385 972.632,831.562 985.626,843.25C998.983,855.265 1012.52,867.105 1025.35,879.673C1033.48,887.647 1041.55,895.225 1051.81,900.602C1077.19,913.894 1102.15,927.974 1127.46,941.393C1162.19,959.809 1197.15,977.814 1231.92,996.161C1294.98,1029.43 1357.87,1063.02 1421.05,1096.06C1441.69,1106.85 1463.09,1116.21 1484.02,1126.47C1493.57,1131.16 1503.34,1135.68 1512.11,1141.61C1540.52,1160.81 1569.3,1161.18 1598.75,1144.73C1620.27,1132.7 1641.69,1120.51 1663.07,1108.24C1697.16,1088.68 1731.48,1069.48 1765.16,1049.24C1810.93,1021.75 1855.04,991.712 1893.94,954.936C1910.83,938.965 1926.24,921.289 1941.22,903.458C1967.36,872.338 1992.97,840.789 2022.02,812.261C2036.36,798.184 2048.33,782.227 2059.29,765.43C2070.61,748.08 2085.24,743.592 2103.77,752.014C2113.46,756.418 2122.8,761.623 2132.12,766.773C2147.93,775.499 2158.89,788.472 2165.18,805.417C2167.5,811.662 2170.61,817.677 2172.29,824.078C2180.89,856.801 2197.68,885.465 2215.67,913.612C2231.1,937.75 2246.23,962.076 2261.55,986.286C2287.32,1027 2316.93,1064.69 2352.21,1097.56C2375.61,1119.35 2400.56,1139.36 2427.18,1157.27C2437.09,1163.93 2445.91,1164.58 2456.92,1159.7C2532.47,1126.27 2608.23,1093.34 2683.95,1060.29C2752.94,1030.17 2822.03,1000.26 2890.94,969.947C2923.26,955.731 2955.4,941.087 2987.38,926.121C3041.1,900.984 3094.41,874.991 3148.33,850.31C3166.42,842.029 3185.7,836.212 3204.7,830.065C3224.4,823.688 3247.35,837.856 3254.94,859.447C3257.89,867.842 3255.68,875.408 3248.15,880.627C3241.07,885.535 3233.25,889.401 3225.62,893.493C3216.89,898.186 3210.96,904.08 3211.14,915.194C3211.31,925.371 3206.75,934.48 3201.56,943.216C3156.29,1019.39 3112.17,1096.27 3065.64,1171.67C3017.71,1249.35 2968.49,1326.32 2912.61,1398.68C2882.39,1437.82 2848.52,1473.62 2809.66,1504.39C2778.39,1529.16 2742.86,1545.46 2704.51,1556C2676.16,1563.79 2647.07,1567.41 2618.12,1571.76C2592.46,1575.61 2566.75,1579.17 2541.02,1582.53C2524.53,1584.68 2507.98,1586.53 2491.42,1587.99C2462.26,1590.56 2433.07,1592.74 2403.9,1595.07C2402.57,1595.18 2401.24,1595.26 2399.9,1595.31C2361.98,1596.86 2324.07,1598.56 2286.14,1599.89C2236.89,1601.61 2187.57,1602.63 2138.41,1605.09C2053.78,1609.31 1969.2,1607.62 1884.61,1607.66C1844.69,1607.68 1804.74,1605.38 1764.85,1603.26C1725.65,1601.19 1686.5,1598.08 1647.34,1595.3C1612.16,1592.81 1576.97,1590.51 1541.84,1587.45C1506.06,1584.33 1470.34,1580.47 1434.6,1576.8C1406.14,1573.88 1377.72,1570.62 1349.25,1567.79C1333.59,1566.24 1319.05,1562.48 1306.93,1549.31M1169.82,1032.13C1155.76,1024.53 1141.8,1016.73 1127.6,1009.39C1113.69,1002.2 1100.41,993.652 1084.5,987.119C1084.7,990.8 1084.29,992.825 1084.97,994.374C1103.22,1035.94 1125.59,1075.33 1149.08,1114.07C1158.11,1128.98 1172.17,1137.8 1189.62,1140.64C1195.53,1141.6 1201.48,1142.35 1207.42,1143.18C1217.96,1144.65 1228.59,1145.66 1239.03,1147.68C1261.9,1152.11 1284.76,1156.71 1307.47,1161.93C1318.44,1164.45 1329.24,1168.07 1339.79,1172.04C1349.72,1175.77 1356.67,1183.24 1358.54,1193.81C1360.51,1204.9 1361.34,1216.24 1354.73,1227.48C1335.54,1227.76 1316.23,1227.68 1296.96,1228.41C1277.32,1229.16 1257.5,1227.35 1236.82,1231.04C1238.56,1234.85 1239.35,1237.33 1240.71,1239.44C1253.7,1259.6 1267.16,1279.47 1279.73,1299.89C1288.92,1314.83 1302.17,1321.77 1318.99,1324.01C1340.12,1326.82 1361.16,1330.23 1382.24,1333.41C1440.85,1342.27 1499.45,1351.22 1558.07,1359.98C1586.4,1364.21 1614.85,1367.63 1643.09,1372.36C1654.12,1374.21 1665.38,1377.28 1675.36,1382.19C1692.3,1390.52 1700.45,1404.98 1699.09,1424.75C1696.03,1425.72 1693.62,1426.95 1691.1,1427.22C1662.57,1430.21 1634.04,1431.96 1605.3,1430.14C1556.69,1427.05 1508.65,1419.29 1460.33,1413.95C1431.88,1410.81 1403.22,1409.65 1374.64,1407.76C1371.65,1407.56 1367.83,1406.68 1366.07,1412.57C1383.01,1436.93 1400.86,1461.77 1417.75,1487.25C1425.47,1498.89 1435.25,1504.76 1448.99,1505.55C1466.29,1506.54 1483.54,1508.25 1500.81,1509.57C1544.66,1512.93 1588.48,1516.96 1632.38,1519.36C1678.95,1521.91 1725.61,1523.38 1772.24,1524.46C1862.86,1526.56 1953.49,1528.27 2044.12,1529.73C2157.51,1531.55 2270.63,1524.43 2383.8,1518.9C2401.1,1518.05 2418.39,1516.63 2435.62,1514.89C2507.91,1507.59 2579.5,1495.43 2651.05,1483.14C2678.74,1478.39 2703.18,1466.58 2722.54,1445.98C2760.43,1405.68 2798.76,1365.74 2835.26,1324.21C2877.19,1276.5 2911.14,1222.92 2942.9,1168.07C2976.28,1110.42 3008.87,1052.31 3041.75,994.376C3044.01,990.393 3045.82,986.151 3047.76,982.181C3042.76,977.565 3038.6,980.173 3034.41,982.142C2977.12,1009 2919.83,1035.85 2862.56,1062.74C2859.72,1064.07 2856,1064.84 2856.8,1069.92C2858.71,1071.12 2860.79,1072.91 2863.2,1073.86C2877.81,1079.58 2884.07,1091.81 2887.93,1105.69C2892.03,1120.4 2887.2,1128.39 2872.38,1132.28C2869.83,1132.95 2867.13,1133.24 2864.49,1133.4C2844.53,1134.62 2824.57,1135.82 2804.61,1136.93C2780.64,1138.27 2758.23,1133.58 2738.21,1119.64C2737.22,1118.95 2735.66,1119.07 2733.27,1118.61C2724.38,1122.5 2714.64,1126.77 2704.89,1131.01C2695.12,1135.27 2685.2,1139.19 2675.61,1143.82C2666.36,1148.29 2655.66,1150.3 2646.99,1158.82C2656.51,1160.31 2664.39,1161.41 2672.22,1162.82C2678.76,1163.99 2685.29,1165.27 2691.71,1166.94C2702.52,1169.77 2708.68,1177.31 2710.66,1187.96C2712.46,1197.62 2713.64,1207.43 2710.77,1217.84C2704.81,1218.62 2699.62,1219.4 2694.4,1219.97C2674.53,1222.13 2654.6,1223.79 2634.8,1226.45C2605.76,1230.34 2576.86,1235.22 2547.83,1239.16C2523.58,1242.44 2499.72,1242.78 2479.9,1224.65C2479.03,1223.86 2477.42,1223.86 2474.8,1223.1C2448.07,1231.49 2418.79,1236.09 2393.9,1252.97C2392.26,1254.07 2390.41,1254.94 2388.56,1255.63C2379.67,1258.96 2371.51,1257.85 2364.53,1251.13C2361.17,1247.89 2358,1244.46 2354.83,1241.05C2342.57,1227.86 2330.37,1214.64 2318.11,1201.46C2240.04,1117.51 2157.46,1037.83 2081.56,951.81C2079.9,949.926 2077.53,948.663 2074.67,946.484C2028.07,978.134 1981.84,1009.52 1935.64,1040.95C1931.81,1043.56 1928.15,1046.44 1924.46,1049.26C1923.97,1049.63 1923.54,1050.29 1923.44,1050.88C1923.33,1051.5 1923.64,1052.18 1923.87,1053.33C1929.45,1055.99 1935.62,1058.29 1941.12,1061.68C1950.81,1067.64 1954.22,1076.62 1951.07,1087.52C1947.38,1100.31 1940.74,1110.57 1926.48,1113.67C1915.43,1116.07 1904.39,1118.57 1893.43,1121.39C1882.88,1124.1 1872.38,1124.46 1861.79,1122.06C1839.79,1117.08 1819.37,1121.47 1800.43,1133C1789.06,1139.92 1778.14,1147.6 1767.22,1155.22C1765.03,1156.75 1763.75,1159.58 1761.31,1162.78C1780.59,1167.39 1798.11,1171.39 1815.51,1175.84C1821.91,1177.47 1828.37,1179.51 1834.23,1182.49C1843.44,1187.17 1846.32,1193.78 1844.71,1204.01C1842.34,1219 1832.55,1227.66 1818.75,1231.18C1809.85,1233.44 1800.27,1234.27 1791.08,1233.9C1754.46,1232.39 1717.88,1229.91 1681.27,1228.28C1652.61,1227.01 1623.99,1225.79 1596.25,1217.5C1590.95,1215.92 1585.98,1215.71 1581.05,1219.16C1567.42,1228.7 1553.32,1226.64 1539.33,1220.04C1528.5,1214.92 1517.75,1209.59 1507.08,1204.15C1395.52,1147.29 1283.99,1090.38 1169.82,1032.13Z" style="fill:rgb(2,2,1);fill-rule:nonzero;"/>
    <path d="M3187.3,2411.22C3180.91,2413 3174.38,2414.39 3168.16,2416.64C3139.85,2426.9 3110.97,2434.32 3080.79,2436.6C3053.6,2438.64 3026.46,2441.42 2999.31,2444.01C2993.36,2444.57 2987.48,2445.87 2981.54,2446.52C2977,2447.02 2972.41,2447.03 2966.93,2447.31C2965.79,2443.02 2963.99,2439.35 2963.99,2435.68C2964.04,2415.15 2957.87,2396.29 2948.94,2378.2C2942.11,2364.36 2936.75,2350.06 2933.85,2334.92C2928.75,2308.29 2934.65,2284.17 2953.36,2264.55C2981.41,2235.14 3010.01,2206.2 3043.39,2182.56C3072.5,2161.94 3103.61,2145.45 3138.93,2138.66C3162.42,2134.14 3185.88,2130.95 3210.28,2134.73C3229.44,2137.7 3248.37,2140.55 3266.69,2147.05C3298.95,2158.51 3322.71,2179.53 3339.11,2209.5C3352.12,2233.26 3359.06,2258.92 3363.35,2285.29C3366.01,2301.65 3368.31,2318.42 3367.73,2334.9C3365.41,2400.28 3348.78,2461.24 3307.57,2513.62C3285.33,2541.9 3262.41,2569.64 3240.2,2597.93C3229.93,2611.01 3220.24,2624.59 3210.98,2638.42C3206.1,2645.71 3207.23,2650.2 3214.2,2655.72C3239.99,2676.09 3267.46,2693.88 3299.37,2702.87C3333.54,2712.5 3367.95,2710.45 3402,2701.24C3409.07,2699.33 3416.16,2697.28 3422.95,2694.57C3461.51,2679.17 3499.87,2680.99 3537.95,2695.93C3581.91,2713.17 3618.58,2739.91 3644.01,2780.33C3649.99,2789.83 3654.71,2800.34 3658.52,2810.93C3669.51,2841.52 3661.87,2870.08 3646.86,2897.22C3636.05,2916.78 3620.72,2933.01 3602.62,2945.56C3545.88,2984.91 3484.38,2995.1 3418.39,2972.23C3406.96,2968.27 3396.37,2962.83 3387.77,2953.97C3376.93,2942.82 3373.22,2930.09 3379.74,2915.62C3382.99,2908.4 3386.62,2900.89 3391.83,2895.09C3411.87,2872.77 3432.66,2851.26 3458.63,2835.35C3477.43,2823.83 3497.95,2819.27 3519.32,2817.39C3524.49,2816.94 3529.88,2818.52 3535.1,2819.49C3549.71,2822.2 3556.13,2834.27 3549.38,2847.35C3546.37,2853.19 3541.78,2858.23 3537.78,2863.55C3534.59,2867.79 3530.8,2871.64 3528.02,2876.13C3523.76,2883 3525.03,2888.36 3531.31,2893.7C3549.62,2909.26 3574.67,2906.14 3588.91,2886.47C3594.42,2878.87 3599.31,2871 3600.15,2861.25C3601.1,2850.24 3598.71,2840.26 3592.9,2830.74C3583,2814.55 3569.52,2801.64 3555.37,2789.5C3533.89,2771.07 3508.97,2758.26 3482.62,2748.4C3459.5,2739.74 3435.52,2739.48 3411.88,2745.34C3392.08,2750.25 3377.22,2762.67 3369.59,2781.86C3365.19,2792.93 3362.08,2804.66 3359.76,2816.37C3353.81,2846.41 3341.57,2873.15 3322.35,2897.13C3307,2916.27 3287.98,2930.5 3267.04,2942.43C3237.14,2959.45 3204.95,2968.68 3170.65,2973.11C3122.17,2979.36 3076.61,2970.31 3032.03,2952.65C3022.02,2948.69 3012.98,2943.01 3005.99,2934.63C2989.58,2914.94 2987.66,2890.46 3000.64,2865.41C3008.78,2849.71 3021.61,2837.81 3036.11,2828.06C3065.24,2808.47 3097.28,2795.72 3131.84,2789.53C3149.47,2786.37 3166.31,2790.45 3182.76,2796.36C3190.86,2799.27 3195.68,2805.55 3198.16,2813.62C3204.49,2834.24 3192.02,2854.98 3170.8,2858.63C3164.95,2859.64 3158.85,2859.26 3152.86,2859.45C3144.87,2859.7 3136.82,2859.38 3128.9,2860.26C3120.67,2861.17 3113.86,2864.88 3110.83,2873.34C3125.88,2884.01 3150.2,2892.99 3170.13,2896.49C3208.16,2903.18 3239.38,2890.34 3266.2,2864.12C3278.72,2851.89 3285.07,2836.41 3286.53,2819.54C3288.05,2802 3279.72,2787.35 3268.4,2774.46C3253.68,2757.72 3235.68,2745.15 3216.48,2734.22C3176.7,2711.58 3134.28,2695.64 3088.94,2689.5C3043.32,2683.33 2998.3,2686.89 2956.33,2708.09C2925.78,2723.52 2901.5,2745.57 2887.12,2777.43C2879.85,2793.56 2878.24,2810.86 2876.52,2828.03C2874.59,2847.22 2873.78,2866.53 2872.85,2885.81C2872.57,2891.75 2873.39,2897.76 2873.87,2903.72C2874.25,2908.37 2875.4,2912.99 2875.34,2917.62C2875.05,2938.45 2879,2958.64 2883.26,2978.9C2889.82,3010.06 2902.29,3038.74 2920.6,3064.43C2945.64,3099.57 2965.07,3137.09 2975.82,3178.97C2976.27,3180.73 2977.51,3182.29 2978.91,3184.95C2981.42,3183.2 2983.69,3182.01 2985.45,3180.3C2989.73,3176.1 2993.86,3171.74 2997.91,3167.32C3044.71,3116.28 3103.77,3087.27 3170.42,3072.83C3208.84,3064.5 3247.88,3059.88 3287.34,3060.26C3292.66,3060.31 3298.02,3060.49 3303.29,3061.14C3350.81,3067.01 3370.93,3104.63 3376.03,3141.97C3380.21,3172.63 3366.27,3196.32 3344.53,3216.08C3316.66,3241.41 3283.7,3257.28 3246.63,3262.64C3227.68,3265.38 3207.99,3264.87 3188.8,3263.57C3172.7,3262.48 3160.01,3253.66 3153.03,3238.26C3146.02,3222.78 3143.09,3206.55 3144.44,3189.59C3145.28,3179.03 3150.03,3170.32 3158.34,3164.01C3169.33,3155.67 3182.1,3152.16 3195.82,3152.44C3209,3152.71 3216.95,3164.1 3214.18,3175.47C3212.77,3181.24 3211.97,3187.32 3212.03,3193.25C3212.14,3204.98 3218.98,3211.63 3230.74,3212.18C3234.04,3212.34 3237.47,3212.22 3240.69,3211.53C3258.6,3207.71 3275.09,3200.48 3288.68,3188.14C3316.41,3162.97 3306.65,3113.71 3271.73,3100.47C3258.22,3095.34 3244.2,3094.83 3230.31,3096.78C3177.75,3104.19 3130.19,3122.66 3089.86,3158.68C3066.79,3179.28 3048.03,3203.32 3028.68,3227.03C3024.89,3231.66 3021.16,3236.37 3017.1,3240.76C3007.28,3251.38 2995.7,3258.98 2980.71,3259.18C2972.92,3259.28 2968.7,3263.32 2965.24,3269.64C2936.21,3322.62 2892.19,3360.74 2842.14,3392.63C2799.87,3419.56 2754.51,3440.55 2708.62,3460.45C2659.11,3481.91 2609.72,3503.67 2560.32,3525.39C2556.97,3526.87 2553.98,3529.13 2548.15,3532.63C2556.48,3535.47 2561.8,3537.62 2567.31,3539.09C2589.83,3545.14 2612.42,3550.91 2634.95,3556.92C2658.75,3563.26 2659.74,3565.35 2647.25,3585.7C2633.53,3608.08 2615.71,3626.7 2595.22,3643.15C2549.35,3679.98 2498.47,3706.59 2441.47,3721.52C2420.72,3726.95 2399.41,3730.63 2378.35,3730.41C2347.08,3730.07 2316,3724.93 2286.64,3712.86C2256.66,3700.53 2230.02,3683.51 2208.25,3659C2186.12,3634.08 2176.29,3605.43 2180.49,3572.45C2183.8,3546.36 2197.87,3528.06 2223.24,3519.79C2233.32,3516.5 2243.83,3513.89 2254.33,3512.68C2272.83,3510.54 2291.52,3510.05 2310.06,3508.21C2323.26,3506.9 2336.86,3506.1 2349.42,3502.25C2379.54,3493.03 2410.61,3489.32 2441.41,3483.93C2461.76,3480.38 2481.89,3476.25 2501.3,3468.64C2526.03,3458.95 2544.41,3442.69 2556.77,3419.35C2557.7,3417.59 2558.5,3415.74 2559.51,3414.02C2566.32,3402.3 2582.36,3400.97 2591.08,3411.79C2594.38,3415.87 2596.34,3421.01 2598.96,3425.64C2608.12,3441.81 2618.49,3444.87 2633.01,3434.18C2661.09,3413.51 2691.89,3397.78 2722.92,3382.28C2752.12,3367.68 2781.24,3352.85 2809.68,3336.87C2833.03,3323.76 2853.96,3307.29 2869.67,3284.96C2883.82,3264.85 2892.66,3243.3 2892.72,3218.15C2892.78,3190.66 2890.49,3163.67 2882.72,3137.18C2868.51,3088.74 2834.88,3063.69 2786.35,3056.26C2781.25,3055.48 2776.15,3054.72 2769.43,3053.7C2771.47,3048.17 2772.55,3043.78 2774.6,3039.91C2787.62,3015.34 2790.42,2989.5 2785.59,2962.32C2779.53,2928.22 2773.77,2894.07 2775.8,2859.14C2779.13,2801.84 2798.19,2751.63 2839.05,2710C2870.22,2678.25 2907.57,2657.5 2948.98,2643.08C2974.87,2634.07 3000.04,2623.59 3023.03,2608.44C3044.79,2594.09 3064.41,2577.42 3082.03,2557.98C3110.37,2526.71 3133.03,2491.35 3157.64,2457.38C3167.8,2443.36 3177.81,2429.25 3188.68,2413.5C3188.75,2411.62 3188.03,2411.42 3187.3,2411.22M3117.9,2360.47C3135.72,2357.15 3152.41,2350.91 3168.3,2342.11C3202.07,2323.39 3214.78,2279.92 3207.79,2251.19C3202.83,2230.83 3186.26,2216.95 3165.06,2215.61C3146.01,2214.39 3128.19,2218.89 3110.69,2226.04C3081.43,2238.01 3062.83,2259.08 3055.62,2289.77C3050.59,2311.18 3047.87,2332.96 3048.33,2355.01C3048.41,2358.76 3049.85,2362.49 3050.88,2367.2C3073.02,2369.49 3093.69,2363.86 3117.9,2360.47M2410.97,3645.22C2419.43,3643.48 2427.91,3641.86 2436.34,3639.95C2444.11,3638.18 2451.9,3636.35 2459.53,3634.08C2467.16,3631.81 2475.65,3631.48 2483.28,3625.36C2442.96,3617.36 2433.13,3614.09 2396.57,3592.88C2381.02,3583.87 2364.83,3576.14 2347.41,3571.18C2329.05,3565.96 2310.53,3566.98 2292.04,3569.49C2287.06,3570.17 2282.39,3573.12 2278.03,3574.84C2277.76,3594.69 2284.94,3613.99 2296.87,3626.87C2303.26,3633.78 2310.3,3639.82 2319.3,3643.07C2336.37,3649.22 2353.87,3652.96 2372.1,3651C2383.98,3649.72 2395.78,3647.73 2410.97,3645.22Z" style="fill:rgb(0,1,1);fill-rule:nonzero;"/>
    <path d="M979.549,2476.49C981.939,2481.16 983.778,2486.21 986.805,2490.41C1008.62,2520.69 1030.4,2550.99 1052.72,2580.89C1070.3,2604.42 1089.7,2626.35 1112.86,2644.73C1138.24,2664.88 1166.44,2679.58 1197.32,2689.13C1222.21,2696.83 1246.63,2705.6 1269.36,2718.52C1314.43,2744.14 1347.4,2780.13 1365.39,2829.35C1381.35,2873.01 1383.27,2917.71 1377.35,2963.29C1374.6,2984.39 1370.92,3005.38 1371.41,3026.88C1371.81,3044.51 1374.68,3061.27 1382.52,3077.14C1384.5,3081.15 1385.63,3085.58 1387.58,3091C1382.41,3092.89 1378.34,3095.02 1374.02,3095.85C1361.45,3098.26 1349.81,3102.99 1338.35,3108.51C1314.25,3120.11 1298.07,3138.89 1288.8,3163.56C1284.83,3174.1 1281.79,3185.14 1279.74,3196.22C1276.73,3212.56 1273.49,3229.09 1272.97,3245.62C1271.61,3289.52 1287.15,3326.77 1322.11,3354.18C1336.7,3365.62 1352.67,3375.74 1369.16,3384.23C1394.61,3397.33 1420.95,3408.72 1447.08,3420.46C1474.49,3432.77 1501.34,3445.98 1525.54,3464.08C1536.52,3472.3 1546.57,3470.72 1554.06,3459.47C1557.73,3453.97 1560.11,3447.62 1563.24,3441.74C1565.85,3436.85 1569.6,3433.3 1575.33,3432.18C1585.62,3430.17 1591.49,3432.31 1596.57,3442.18C1607.02,3462.49 1621.72,3478.27 1643.07,3486.92C1659.78,3493.69 1677.12,3498.2 1695.16,3500.34C1723.55,3503.72 1752.15,3506.43 1780.13,3512.07C1809.09,3517.91 1837.95,3520.94 1867.4,3520.05C1882.71,3519.58 1897.89,3520.48 1913.05,3523.94C1940.46,3530.19 1956.64,3550.47 1959.63,3577.22C1962.69,3604.67 1956.74,3630.01 1941.68,3653.44C1920.31,3686.72 1889.41,3708.34 1854.36,3724.09C1819.87,3739.59 1783.23,3746.62 1745.25,3743.62C1714.47,3741.18 1684.87,3733.18 1656.32,3721.65C1624.69,3708.88 1594.62,3693.09 1567.88,3671.66C1548.06,3655.77 1529.64,3638.42 1515.51,3617.06C1511.17,3610.51 1506.5,3603.95 1505.75,3594.98C1522.07,3586.18 1539.74,3582.47 1556.45,3576.26C1572.5,3570.3 1588.63,3564.54 1605.97,3558.24C1601.13,3550.61 1594.41,3548.99 1588.54,3546.61C1565.69,3537.34 1542.84,3528.06 1519.75,3519.44C1469.17,3500.56 1418.55,3481.66 1370.02,3457.97C1324.36,3435.69 1281.11,3409.47 1245.79,3371.91C1232.94,3358.25 1221.13,3343.96 1211.57,3327.81C1207.86,3321.54 1203.63,3315.59 1200.01,3310.07C1197,3309.31 1195.04,3308.28 1193.19,3308.44C1174.53,3310.02 1161.48,3300.47 1150.44,3287.03C1144.09,3279.31 1138.19,3271.22 1131.77,3263.57C1113.75,3242.09 1094.73,3221.6 1072.01,3204.9C1040.71,3181.89 1005.61,3168.6 967.141,3163.78C952.576,3161.95 938.224,3160.49 923.55,3163.91C895.247,3170.51 876.016,3198.14 880.741,3226.87C882.284,3236.25 886.134,3244.53 892.857,3251.59C906.864,3266.32 924.324,3273.56 944.033,3276.15C947.292,3276.57 950.732,3276.47 953.983,3275.95C964.957,3274.21 971.46,3265.73 970.409,3254.68C969.718,3247.41 967.969,3240.16 968.072,3232.93C968.214,3222.97 974.32,3217.12 984.253,3216.01C987.547,3215.64 990.923,3215.64 994.236,3215.86C1023.74,3217.82 1035.57,3235.5 1034.84,3262.15C1034.62,3270.08 1032.85,3278.02 1031.15,3285.82C1026.04,3309.36 1009.14,3325.62 985.938,3327.49C953.865,3330.08 922.167,3328.79 891.494,3316.65C865.926,3306.53 845.06,3290.45 828.043,3269.48C812.916,3250.84 808.575,3229.07 813.486,3205.43C816.788,3189.54 823.398,3175.04 831.567,3161.22C838.985,3148.67 850.118,3140 863.808,3135.72C875.159,3132.18 887.064,3129.14 898.859,3128.53C940.224,3126.42 981.536,3128.24 1022.12,3137.03C1078.65,3149.27 1129.12,3173.4 1170.17,3215.33C1176.46,3221.76 1181.42,3230.14 1191.97,3233.9C1193.56,3229.74 1195.33,3226.29 1196.19,3222.64C1205.25,3183.89 1221.8,3148.55 1243.18,3115.11C1267.67,3076.79 1281.39,3034.67 1284.4,2989.18C1285.46,2973.26 1287.51,2957.33 1287.4,2941.41C1287.18,2910.11 1284.53,2878.86 1279.56,2847.97C1274.53,2816.7 1256.43,2792.99 1231.57,2774.5C1205.74,2755.29 1176.09,2746.18 1144.17,2743.72C1094.86,2739.92 1049.1,2752.51 1005.01,2773.22C980.158,2784.89 956.888,2799.05 935.422,2816.19C921.762,2827.09 909.721,2839.44 900.84,2854.6C887.765,2876.92 889.589,2903.61 905.63,2923.84C931.573,2956.57 965.838,2966.41 1005.6,2958.55C1022.63,2955.18 1038.44,2947.6 1053.49,2938.8C1055.77,2937.47 1057.8,2935.74 1059.45,2934.55C1057.47,2924.17 1051.01,2921.1 1043.43,2920.34C1036.17,2919.62 1028.79,2920.05 1021.46,2919.98C1014.14,2919.92 1006.75,2920.47 999.495,2919.7C987.575,2918.43 980.207,2911.45 977.191,2899.9C971.35,2877.53 979.76,2861.96 1002.02,2855.05C1020.93,2849.19 1040.69,2849.36 1059.42,2853.55C1090.12,2860.43 1119.17,2872.12 1144.25,2892.16C1167.92,2911.09 1176.14,2935.77 1171.71,2964.95C1169.74,2977.9 1162.95,2988.95 1152.28,2996.57C1143.13,3003.12 1133.47,3009.51 1123.12,3013.74C1085.75,3029.04 1046.91,3038.42 1006.24,3035.55C953.538,3031.82 905.939,3015.05 867.558,2976.99C846.166,2955.78 832.651,2930.13 825.236,2901.11C823.257,2893.37 821.769,2885.49 819.606,2877.8C817.627,2870.76 815.418,2863.74 812.655,2856.97C803.067,2833.51 784.746,2822.36 760.101,2820.12C733.884,2817.73 709.832,2825 687.122,2836.99C661.569,2850.49 639.25,2868.38 619.924,2889.93C610.045,2900.94 602.453,2913.35 596.308,2926.81C591.172,2938.05 591.726,2948.75 597.48,2959.41C599.377,2962.92 601.259,2966.47 603.478,2969.78C617.229,2990.3 638.978,2993.58 658.441,2978.17C664.502,2973.37 666.491,2965.49 662.453,2958.47C659.84,2953.92 655.816,2950.21 652.595,2946C648.974,2941.26 644.68,2936.78 642.201,2931.47C635.955,2918.11 641.948,2905.8 656.149,2902.28C669.275,2899.02 682.574,2899.21 695.741,2902.32C713.454,2906.5 730.231,2913.16 744.444,2924.65C758.408,2935.94 772.269,2947.53 784.806,2960.34C792.576,2968.27 798.751,2978.2 803.93,2988.13C811.511,3002.67 808.595,3016.55 797.597,3028.69C789.88,3037.22 780.894,3044.02 770.243,3048.41C708.4,3073.96 648.831,3069.62 593.184,3032.2C560.375,3010.15 538.72,2979.46 533.912,2939.02C532.987,2931.23 533.225,2923.04 534.536,2915.31C539.826,2884.12 555.121,2857.76 575.988,2834.59C599.998,2807.94 628.736,2787.83 662.372,2774.98C693.199,2763.2 724.292,2760.05 756.122,2771.27C775.71,2778.16 796.272,2781.67 816.785,2783.05C843.766,2784.85 869.856,2778.72 894.146,2766.69C918.193,2754.78 939.503,2738.77 959.057,2720.45C964.895,2714.98 965.836,2710.96 961.53,2704.6C953.696,2693.02 945.546,2681.6 936.771,2670.73C917.948,2647.4 898.461,2624.61 879.583,2601.33C857.248,2573.78 836.897,2544.89 825.342,2510.94C820.858,2497.77 818.08,2484 814.763,2470.45C807.57,2441.05 805.955,2411.15 807.87,2381.1C809.831,2350.34 815.953,2320.38 828.091,2291.87C846.281,2249.16 878.567,2222.32 922.613,2209.37C986.257,2190.66 1046.5,2198.38 1102.86,2233.86C1123.21,2246.67 1142.15,2261.35 1159.82,2277.68C1171.07,2288.07 1182.57,2298.2 1193.74,2308.67C1219.09,2332.44 1225.19,2362.06 1218.15,2394.76C1215.37,2407.68 1210.35,2420.23 1205.36,2432.55C1197.01,2453.14 1191.02,2474.02 1193.74,2497.57C1190.39,2498.49 1187.42,2499.95 1184.43,2499.99C1177.11,2500.08 1169.64,2500.32 1162.48,2499.08C1141.95,2495.52 1121.28,2496.14 1100.66,2496.36C1061.57,2496.76 1023.71,2490.66 987.15,2476.74C985.925,2476.27 984.552,2476.2 981.249,2475.26C978.298,2474.41 977.345,2474.23 976.393,2474.05C977.445,2474.86 978.497,2475.68 979.549,2476.49M1024.91,2418.03C1050.19,2424.51 1076.2,2424.9 1101.99,2427.13C1104.39,2427.33 1106.94,2425.9 1110.36,2424.97C1110.83,2419.45 1111.99,2414.24 1111.58,2409.15C1110.24,2392.6 1109.09,2375.97 1106.43,2359.6C1103.42,2341.02 1096.84,2323.63 1083.57,2309.49C1065.71,2290.44 1042.51,2283.27 1017.64,2279.88C1014.37,2279.43 1010.99,2279.77 1007.67,2279.62C975.922,2278.16 958.621,2300.72 956.176,2326.66C953.63,2353.67 966.738,2394.45 1003.27,2409.77C1009.4,2412.34 1015.64,2414.63 1024.91,2418.03M1799.37,3662.91C1803.25,3662 1807.14,3661.13 1811,3660.17C1847.88,3651.01 1862.39,3623.34 1867.44,3590.89C1868.1,3586.65 1866.46,3582.58 1862,3581.43C1851.09,3578.64 1840.19,3575.57 1828.66,3577.22C1808.72,3580.09 1789.75,3585.56 1772.72,3596.79C1766.08,3601.18 1759,3604.92 1752.37,3609.33C1727.97,3625.6 1702.51,3639.53 1670.84,3644.99C1682.19,3652.47 1693.06,3652.5 1703.06,3654.66C1733.6,3661.26 1764.39,3666.32 1799.37,3662.91Z" style="fill:rgb(0,1,1);fill-rule:nonzero;"/>
    <path d="M1839.54,2507.06C1842.06,2481.46 1831.03,2464.53 1812.13,2451.39C1762.2,2416.66 1717.46,2375.69 1672.66,2334.78C1657.66,2321.08 1646.63,2304.57 1636.37,2287.37C1635.84,2286.49 1636.45,2284.91 1636.53,2283.66C1637.69,2283.16 1638.89,2282.17 1640,2282.25C1653.29,2283.28 1666.57,2284.42 1679.85,2285.61C1730.95,2290.17 1782,2295.4 1833.16,2299.12C1870.44,2301.83 1907.78,2299.92 1944.95,2295.83C1949.47,2295.33 1954.16,2294.05 1958.21,2292.01C1968.36,2286.9 1976.21,2278.79 1985.84,2271.34C1970.49,2255.87 1952.76,2248.74 1933.94,2244.5C1919.04,2241.14 1903.78,2239.19 1888.6,2237.22C1842.36,2231.22 1796.03,2225.85 1749.82,2219.62C1706.26,2213.74 1662.79,2207.19 1619.3,2200.75C1588.3,2196.15 1564.4,2179.73 1548.67,2153.31C1524.14,2112.11 1501.19,2069.99 1477.67,2028.2C1475.76,2024.8 1474.63,2020.95 1472.45,2015.6C1479.07,2016.43 1484.26,2016.75 1489.31,2017.78C1528.48,2025.78 1566.98,2036.35 1605.46,2047.12C1645.32,2058.28 1686.36,2063.98 1727.55,2067.24C1775.37,2071.02 1823.32,2073.35 1871.22,2076.02C1882.52,2076.65 1893.87,2076.17 1905.2,2076.07C1914.04,2076 1922.2,2073.31 1930.04,2069.35C1941.68,2063.47 1948.85,2055.16 1948.03,2041.05C1947.19,2026.45 1941.49,2015.33 1927.89,2009.23C1923.06,2007.06 1917.84,2005.53 1912.64,2004.49C1891.76,2000.33 1870.94,1995.42 1849.86,1992.68C1771.25,1982.47 1692.5,1973.32 1613.88,1963.15C1564.33,1956.73 1515.34,1946.89 1466.55,1936.1C1445.59,1931.47 1427.83,1921.82 1416.21,1903.08C1405.99,1886.6 1402.66,1868.48 1404.88,1849.37C1405.56,1843.55 1407.44,1837.86 1408.96,1831.28C1413.58,1831.28 1417.44,1830.86 1421.19,1831.35C1458.18,1836.13 1495.13,1841.32 1532.15,1845.88C1573.14,1850.93 1614.16,1855.76 1655.23,1860.11C1691.67,1863.96 1728.17,1867.32 1764.69,1870.33C1807.86,1873.88 1851.07,1876.96 1894.28,1879.99C1986.08,1886.43 2078.04,1887.88 2170.03,1888.58C2192.69,1888.75 2215.34,1889.47 2238,1890.12C2303.4,1892.01 2368.53,1888.58 2433.55,1881.29C2493.85,1874.52 2553.9,1866.18 2612.87,1851.94C2647.12,1843.67 2680.72,1832.63 2714.47,1822.38C2734.85,1816.19 2754.95,1809.07 2775.22,1802.5C2779.57,1801.09 2784.11,1800.27 2790.01,1798.83C2790.18,1803.57 2790.85,1807.32 2790.37,1810.91C2785.82,1845.5 2775.73,1878.54 2761.98,1910.51C2725.82,1994.64 2681.12,2074.09 2629.91,2149.89C2613.51,2174.18 2596.21,2197.88 2579.06,2221.66C2534.05,2284.07 2482.3,2340.4 2425.63,2392.38C2394.2,2421.21 2363.44,2450.76 2332.54,2480.15C2327.75,2484.7 2323.33,2489.8 2319.55,2495.22C2314.42,2502.57 2315.13,2510.3 2320.22,2517.6C2321.36,2519.23 2322.58,2520.87 2324.05,2522.2C2332.59,2529.91 2335.21,2539.93 2335.8,2550.93C2337.01,2573.55 2338.66,2596.15 2339.7,2618.78C2341.08,2648.77 2343.64,2678.65 2349.31,2708.13C2356.04,2743.07 2370.25,2775.39 2385.4,2807.38C2413.33,2866.36 2440.97,2925.49 2468.64,2984.6C2483.05,3015.4 2495.44,3046.99 2504.8,3079.72C2506.45,3085.48 2508.62,3091.09 2510.26,3096.85C2518.35,3125.37 2530.01,3152 2550.3,3174.21C2552.53,3176.65 2554.32,3179.52 2556.14,3182.3C2556.85,3183.38 2557.11,3184.75 2557.99,3187.14C2553.92,3188.69 2549.95,3190.71 2545.73,3191.73C2458.92,3212.7 2371.38,3229.61 2282.76,3241.1C2182.12,3254.14 2081.14,3260.64 1979.68,3258.53C1839.94,3255.62 1702.17,3237.49 1566.5,3203.73C1559.52,3201.99 1552.61,3199.93 1544,3197.56C1546.18,3193.87 1547.41,3190.96 1549.35,3188.64C1562.6,3172.78 1576.35,3157.34 1589.2,3141.17C1597.86,3130.28 1608.78,3125.76 1622.17,3125.66C1639.49,3125.53 1656.82,3125.13 1674.15,3125.26C1744.8,3125.78 1815.45,3126.1 1886.08,3127.33C1904.83,3127.66 1921.63,3123.97 1937.17,3113.63C1945.47,3108.12 1954.1,3103.12 1963.04,3097.6C1963.56,3095.32 1964.3,3092.78 1964.69,3090.19C1966.7,3076.62 1961.37,3067.45 1948.95,3061.26C1935.1,3054.37 1921.19,3048.93 1905.51,3047.57C1837.14,3041.6 1768.82,3035.15 1700.48,3028.82C1694.66,3028.28 1688.31,3029.24 1682.87,3023C1683.14,3021.37 1683.02,3018.68 1684.04,3016.54C1697.31,2988.93 1711.05,2961.55 1723.97,2933.78C1728.87,2923.23 1736.29,2918.57 1747.47,2919.02C1768.11,2919.85 1788.76,2920.47 1809.38,2921.67C1881.34,2925.88 1953.26,2926.94 2025.06,2919.37C2044.25,2917.35 2063.3,2913.9 2082.36,2910.78C2088.24,2909.82 2094.18,2908.35 2099.68,2906.11C2110.49,2901.7 2114.15,2893.37 2113.11,2877.82C2112.12,2862.93 2106.82,2854.47 2095.65,2851.81C2089.22,2850.28 2082.46,2849.72 2075.84,2849.56C2049.18,2848.95 2022.52,2848.13 1995.87,2848.36C1921.13,2849 1846.68,2843.34 1772.17,2839.15C1768.33,2838.93 1764.54,2837.9 1759.7,2837.08C1760.01,2833.13 1759.79,2829.85 1760.58,2826.83C1773.09,2779.17 1786.3,2731.69 1798.13,2683.87C1805.37,2654.64 1817.02,2655.63 1838.32,2657.1C1895.49,2661.06 1952.69,2664.53 2009.88,2668.05C2018.5,2668.59 2027.09,2668.71 2035.44,2665.14C2050.82,2658.55 2054.11,2638.97 2040.98,2628.24C2036.97,2624.97 2031.87,2622.56 2026.88,2621.05C1972.09,2604.46 1917.21,2588.13 1862.37,2571.73C1857.9,2570.39 1853.32,2569.34 1849,2567.65C1834.25,2561.87 1829.62,2553.76 1832.57,2537.93C1834.39,2528.13 1837.08,2518.48 1839.54,2507.06Z" style="fill:rgb(248,203,21);fill-rule:nonzero;"/>
    <path d="M1171.13,1032.81C1283.99,1090.38 1395.52,1147.29 1507.08,1204.15C1517.75,1209.59 1528.5,1214.92 1539.33,1220.04C1553.32,1226.64 1567.42,1228.7 1581.05,1219.16C1585.98,1215.71 1590.95,1215.92 1596.25,1217.5C1623.99,1225.79 1652.61,1227.01 1681.27,1228.28C1717.88,1229.91 1754.46,1232.39 1791.08,1233.9C1800.27,1234.27 1809.85,1233.44 1818.75,1231.18C1832.55,1227.66 1842.34,1219 1844.71,1204.01C1846.32,1193.78 1843.44,1187.17 1834.23,1182.49C1828.37,1179.51 1821.91,1177.47 1815.51,1175.84C1798.11,1171.39 1780.59,1167.39 1761.31,1162.78C1763.75,1159.58 1765.03,1156.75 1767.22,1155.22C1778.14,1147.6 1789.06,1139.92 1800.43,1133C1819.37,1121.47 1839.79,1117.08 1861.79,1122.06C1872.38,1124.46 1882.88,1124.1 1893.43,1121.39C1904.39,1118.57 1915.43,1116.07 1926.48,1113.67C1940.74,1110.57 1947.38,1100.31 1951.07,1087.52C1954.22,1076.62 1950.81,1067.64 1941.12,1061.68C1935.62,1058.29 1929.45,1055.99 1923.87,1053.33C1923.64,1052.18 1923.33,1051.5 1923.44,1050.88C1923.54,1050.29 1923.97,1049.63 1924.46,1049.26C1928.15,1046.44 1931.81,1043.56 1935.64,1040.95C1981.84,1009.52 2028.07,978.134 2074.67,946.484C2077.53,948.663 2079.9,949.926 2081.56,951.81C2157.46,1037.83 2240.04,1117.51 2318.11,1201.46C2330.37,1214.64 2342.57,1227.86 2354.83,1241.05C2358,1244.46 2361.17,1247.89 2364.53,1251.13C2371.51,1257.85 2379.67,1258.96 2388.56,1255.63C2390.41,1254.94 2392.26,1254.07 2393.9,1252.97C2418.79,1236.09 2448.07,1231.49 2474.8,1223.1C2477.42,1223.86 2479.03,1223.86 2479.9,1224.65C2499.72,1242.78 2523.58,1242.44 2547.83,1239.16C2576.86,1235.22 2605.76,1230.34 2634.8,1226.45C2654.6,1223.79 2674.53,1222.13 2694.4,1219.97C2699.62,1219.4 2704.81,1218.62 2710.77,1217.84C2713.64,1207.43 2712.46,1197.62 2710.66,1187.96C2708.68,1177.31 2702.52,1169.77 2691.71,1166.94C2685.29,1165.27 2678.76,1163.99 2672.22,1162.82C2664.39,1161.41 2656.51,1160.31 2646.99,1158.82C2655.66,1150.3 2666.36,1148.29 2675.61,1143.82C2685.2,1139.19 2695.12,1135.27 2704.89,1131.01C2714.64,1126.77 2724.38,1122.5 2733.27,1118.61C2735.66,1119.07 2737.22,1118.95 2738.21,1119.64C2758.23,1133.58 2780.64,1138.27 2804.61,1136.93C2824.57,1135.82 2844.53,1134.62 2864.49,1133.4C2867.13,1133.24 2869.83,1132.95 2872.38,1132.28C2887.2,1128.39 2892.03,1120.4 2887.93,1105.69C2884.07,1091.81 2877.81,1079.58 2863.2,1073.86C2860.79,1072.91 2858.71,1071.12 2856.8,1069.92C2856,1064.84 2859.72,1064.07 2862.56,1062.74C2919.83,1035.85 2977.12,1009 3034.41,982.142C3038.6,980.173 3042.76,977.565 3047.76,982.181C3045.82,986.151 3044.01,990.393 3041.75,994.376C3008.87,1052.31 2976.28,1110.42 2942.9,1168.07C2911.14,1222.92 2877.19,1276.5 2835.26,1324.21C2798.76,1365.74 2760.43,1405.68 2722.54,1445.98C2703.18,1466.58 2678.74,1478.39 2651.05,1483.14C2579.5,1495.43 2507.91,1507.59 2435.62,1514.89C2418.39,1516.63 2401.1,1518.05 2383.8,1518.9C2270.63,1524.43 2157.51,1531.55 2044.12,1529.73C1953.49,1528.27 1862.86,1526.56 1772.24,1524.46C1725.61,1523.38 1678.95,1521.91 1632.38,1519.36C1588.48,1516.96 1544.66,1512.93 1500.81,1509.57C1483.54,1508.25 1466.29,1506.54 1448.99,1505.55C1435.25,1504.76 1425.47,1498.89 1417.75,1487.25C1400.86,1461.77 1383.01,1436.93 1366.07,1412.57C1367.83,1406.68 1371.65,1407.56 1374.64,1407.76C1403.22,1409.65 1431.88,1410.81 1460.33,1413.95C1508.65,1419.29 1556.69,1427.05 1605.3,1430.14C1634.04,1431.96 1662.57,1430.21 1691.1,1427.22C1693.62,1426.95 1696.03,1425.72 1699.09,1424.75C1700.45,1404.98 1692.3,1390.52 1675.36,1382.19C1665.38,1377.28 1654.12,1374.21 1643.09,1372.36C1614.85,1367.63 1586.4,1364.21 1558.07,1359.98C1499.45,1351.22 1440.85,1342.27 1382.24,1333.41C1361.16,1330.23 1340.12,1326.82 1318.99,1324.01C1302.17,1321.77 1288.92,1314.83 1279.73,1299.89C1267.16,1279.47 1253.7,1259.6 1240.71,1239.44C1239.35,1237.33 1238.56,1234.85 1236.82,1231.04C1257.5,1227.35 1277.32,1229.16 1296.96,1228.41C1316.23,1227.68 1335.54,1227.76 1354.73,1227.48C1361.34,1216.24 1360.51,1204.9 1358.54,1193.81C1356.67,1183.24 1349.72,1175.77 1339.79,1172.04C1329.24,1168.07 1318.44,1164.45 1307.47,1161.93C1284.76,1156.71 1261.9,1152.11 1239.03,1147.68C1228.59,1145.66 1217.96,1144.65 1207.42,1143.18C1201.48,1142.35 1195.53,1141.6 1189.62,1140.64C1172.17,1137.8 1158.11,1128.98 1149.08,1114.07C1125.59,1075.33 1103.22,1035.94 1084.97,994.374C1084.29,992.825 1084.7,990.8 1084.5,987.119C1100.41,993.652 1113.69,1002.2 1127.6,1009.39C1141.8,1016.73 1155.76,1024.53 1171.13,1032.81Z" style="fill:rgb(248,203,21);fill-rule:nonzero;"/>
    <path d="M3116.24,2360.83C3093.69,2363.86 3073.02,2369.49 3050.88,2367.2C3049.85,2362.49 3048.41,2358.76 3048.33,2355.01C3047.87,2332.96 3050.59,2311.18 3055.62,2289.77C3062.83,2259.08 3081.43,2238.01 3110.69,2226.04C3128.19,2218.89 3146.01,2214.39 3165.06,2215.61C3186.26,2216.95 3202.83,2230.83 3207.79,2251.19C3214.78,2279.92 3202.07,2323.39 3168.3,2342.11C3152.41,2350.91 3135.72,2357.15 3116.24,2360.83Z" style="fill:rgb(6,77,58);fill-rule:nonzero;"/>
    <path d="M2409.29,3645.64C2395.78,3647.73 2383.98,3649.72 2372.1,3651C2353.87,3652.96 2336.37,3649.22 2319.3,3643.07C2310.3,3639.82 2303.26,3633.78 2296.87,3626.87C2284.94,3613.99 2277.76,3594.69 2278.03,3574.84C2282.39,3573.12 2287.06,3570.17 2292.04,3569.49C2310.53,3566.98 2329.05,3565.96 2347.41,3571.18C2364.83,3576.14 2381.02,3583.87 2396.57,3592.88C2433.13,3614.09 2442.96,3617.36 2483.28,3625.36C2475.65,3631.48 2467.16,3631.81 2459.53,3634.08C2451.9,3636.35 2444.11,3638.18 2436.34,3639.95C2427.91,3641.86 2419.43,3643.48 2409.29,3645.64Z" style="fill:rgb(6,76,57);fill-rule:nonzero;"/>
    <path d="M3187.63,2411.55C3188.03,2411.42 3188.75,2411.62 3189.05,2412.18C3188.62,2412.54 3187.95,2411.89 3187.63,2411.55Z" style="fill:rgb(6,78,59);fill-rule:nonzero;"/>
    <path d="M1023.37,2417.54C1015.64,2414.63 1009.4,2412.34 1003.27,2409.77C966.738,2394.45 953.63,2353.67 956.176,2326.66C958.621,2300.72 975.922,2278.16 1007.67,2279.62C1010.99,2279.77 1014.37,2279.43 1017.64,2279.88C1042.51,2283.27 1065.71,2290.44 1083.57,2309.49C1096.84,2323.63 1103.42,2341.02 1106.43,2359.6C1109.09,2375.97 1110.24,2392.6 1111.58,2409.15C1111.99,2414.24 1110.83,2419.45 1110.36,2424.97C1106.94,2425.9 1104.39,2427.33 1101.99,2427.13C1076.2,2424.9 1050.19,2424.51 1023.37,2417.54Z" style="fill:rgb(6,77,58);fill-rule:nonzero;"/>
    <path d="M1797.62,3663.16C1764.39,3666.32 1733.6,3661.26 1703.06,3654.66C1693.06,3652.5 1682.19,3652.47 1670.84,3644.99C1702.51,3639.53 1727.97,3625.6 1752.37,3609.33C1759,3604.92 1766.08,3601.18 1772.72,3596.79C1789.75,3585.56 1808.72,3580.09 1828.66,3577.22C1840.19,3575.57 1851.09,3578.64 1862,3581.43C1866.46,3582.58 1868.1,3586.65 1867.44,3590.89C1862.39,3623.34 1847.88,3651.01 1811,3660.17C1807.14,3661.13 1803.25,3662 1797.62,3663.16Z" style="fill:rgb(6,75,57);fill-rule:nonzero;"/>
    <path d="M979.71,2476.31C978.497,2475.68 977.445,2474.86 976.393,2474.05C977.345,2474.23 978.298,2474.41 979.717,2475.16C980.184,2475.75 979.872,2476.12 979.71,2476.31Z" style="fill:rgb(6,78,59);fill-rule:nonzero;"/>
</svg>
